<svg width="656" height="463" viewBox="0 0 656 463" fill="none" xmlns="http://www.w3.org/2000/svg">
<path opacity="0.3" d="M482.488 72.8233C482.488 72.8233 440.242 43.1251 450.475 60.9837C460.709 78.8423 507.153 104.109 529.785 100.273C552.417 96.5024 515.944 89.5574 482.488 72.8233Z" fill="#E7E7EF"/>
<path d="M463.792 250.814C463.792 250.814 467.597 245.655 481.307 246.25C495.083 246.845 502.627 235.336 504.792 241.289C507.022 247.242 490.294 255.973 478.552 253.393C466.81 250.814 460.578 256.634 463.792 250.814Z" fill="#E7E7EF"/>
<path opacity="0.3" d="M69.1272 280.766C69.1272 280.766 50.3656 285.859 43.4776 304.048C36.5896 322.237 24.3879 310.133 31.9319 293.201C39.4759 276.268 82.9688 267.603 69.1272 280.766Z" fill="#E7E7EF"/>
<path d="M453.821 387.597C462.48 372.583 467.4 355.121 467.4 336.469C467.4 280.38 422.661 234.873 367.491 234.873C312.322 234.873 267.648 280.313 267.648 336.403C267.648 355.055 272.568 372.517 281.227 387.531H453.821V387.597Z" fill="#A8A8C6"/>
<path d="M283.72 245.853C287.722 261.926 291.723 277.932 295.725 294.005C302.088 319.47 308.386 344.869 314.749 370.334C316.192 376.154 317.635 382.041 319.144 387.862C319.472 389.118 321.374 388.589 321.046 387.333C317.045 371.26 313.043 355.253 309.042 339.181C302.678 313.716 296.381 288.317 290.018 262.852C288.574 257.031 287.131 251.144 285.622 245.324C285.294 244.067 283.392 244.596 283.72 245.853Z" fill="#E7E7EF"/>
<path d="M305.63 245.324C301.17 256.7 296.709 268.077 292.248 279.454C291.789 280.644 293.691 281.173 294.15 279.983C298.611 268.606 303.072 257.23 307.533 245.853C307.992 244.662 306.09 244.133 305.63 245.324Z" fill="#E7E7EF"/>
<path d="M273.027 285.539C282.539 296.122 292.117 306.704 301.629 317.287C302.482 318.213 303.859 316.824 303.006 315.898C293.494 305.315 283.917 294.733 274.405 284.15C273.552 283.158 272.174 284.613 273.027 285.539Z" fill="#E7E7EF"/>
<path d="M350.37 217.875C351.288 236.725 352.206 255.642 353.125 274.493C354.634 304.588 356.077 334.617 357.586 364.712C357.914 371.591 358.242 378.47 358.57 385.415C358.635 386.671 360.603 386.671 360.538 385.415C359.619 366.564 358.701 347.647 357.782 328.796C356.274 298.701 354.83 268.672 353.322 238.577C352.994 231.698 352.666 224.82 352.338 217.875C352.272 216.618 350.304 216.618 350.37 217.875Z" fill="#E7E7EF"/>
<path d="M332.986 225.613C339.414 239.04 345.778 252.467 352.206 265.894C352.731 267.085 354.437 266.027 353.912 264.902C347.483 251.475 341.12 238.048 334.691 224.621C334.166 223.431 332.461 224.423 332.986 225.613Z" fill="#E7E7EF"/>
<path d="M384.875 217.61C376.019 241.025 367.163 264.373 358.307 287.788C357.061 291.161 355.749 294.534 354.502 297.841C354.043 299.032 355.945 299.561 356.405 298.37C365.261 274.956 374.117 251.607 382.973 228.193C384.219 224.82 385.531 221.446 386.778 218.139C387.237 216.949 385.334 216.419 384.875 217.61Z" fill="#E7E7EF"/>
<path d="M434.535 233.484C429.811 250.814 425.088 268.143 420.299 285.473C412.755 313.12 405.211 340.702 397.667 368.35C395.962 374.699 394.191 380.983 392.485 387.333C392.157 388.589 394.059 389.118 394.387 387.862C399.111 370.532 403.834 353.203 408.623 335.873C416.167 308.226 423.711 280.644 431.255 252.996C432.96 246.647 434.731 240.363 436.437 234.013C436.765 232.823 434.863 232.294 434.535 233.484Z" fill="#E7E7EF"/>
<path d="M483.144 248.763C476.453 265.431 469.762 282.099 463.07 298.701C452.378 325.224 441.75 351.748 431.058 378.271C428.63 384.356 426.203 390.441 423.71 396.526C423.251 397.717 425.154 398.246 425.613 397.056C432.304 380.388 438.995 363.72 445.686 347.118C456.379 320.594 467.006 294.071 477.699 267.548C480.126 261.463 482.554 255.378 485.046 249.292C485.506 248.102 483.603 247.573 483.144 248.763Z" fill="#E7E7EF"/>
<path d="M413.477 227.135C417.15 241.686 420.758 256.237 424.432 270.789C424.76 272.046 426.662 271.516 426.334 270.26C422.661 255.708 419.053 241.157 415.379 226.605C415.051 225.349 413.149 225.878 413.477 227.135Z" fill="#E7E7EF"/>
<path d="M328 242.48C321.899 270.723 315.798 298.9 309.632 327.143C308.779 331.111 307.926 335.08 307.074 339.114C306.811 340.371 308.714 340.9 308.976 339.644C315.077 311.401 321.178 283.224 327.344 254.981C328.197 251.012 329.05 247.044 329.902 243.009C330.165 241.752 328.262 241.223 328 242.48Z" fill="#E7E7EF"/>
<path d="M357.914 335.08C370.837 305.911 383.76 276.742 396.618 247.573C398.389 243.472 400.226 239.437 401.997 235.336C402.522 234.146 400.816 233.154 400.291 234.344C387.368 263.513 374.445 292.682 361.587 321.851C359.816 325.952 357.979 329.987 356.208 334.088C355.749 335.278 357.454 336.27 357.914 335.08Z" fill="#E7E7EF"/>
<path d="M441.357 357.833C441.357 328.002 441.357 298.106 441.357 268.275C441.357 264.042 441.357 259.743 441.357 255.51C441.357 254.253 439.389 254.253 439.389 255.51C439.389 285.34 439.389 315.237 439.389 345.067C439.389 349.3 439.389 353.6 439.389 357.833C439.389 359.09 441.357 359.09 441.357 357.833Z" fill="#E7E7EF"/>
<path d="M454.936 323.968C454.149 307.829 453.362 291.756 452.509 275.617C452.443 274.361 450.475 274.361 450.541 275.617C451.328 291.756 452.115 307.829 452.968 323.968C453.034 325.224 455.002 325.224 454.936 323.968Z" fill="#E7E7EF"/>
<path d="M263.187 333.757C278.538 346.059 293.954 358.362 309.304 370.665C311.469 372.384 313.699 374.17 315.864 375.89C316.848 376.684 318.226 375.295 317.242 374.501C301.891 362.198 286.475 349.896 271.125 337.593C268.96 335.873 266.73 334.088 264.565 332.368C263.646 331.574 262.203 332.963 263.187 333.757Z" fill="#E7E7EF"/>
<path d="M224.417 387.597C223.499 385.811 222.712 384.224 222.187 383.166C217.661 373.906 214.577 363.984 214.184 353.6C213.134 327.87 220.809 300.553 229.797 276.543C238.39 288.449 246.065 301.148 252.757 314.245C258.267 325.026 263.253 336.403 265.745 348.308C268.435 361.206 266.992 375.096 262.859 387.597H265.221C272.633 364.05 268.304 341.562 257.677 319.205C250.133 303.199 240.817 287.788 230.387 273.567C229.928 272.972 228.747 272.839 228.419 273.699C221.662 291.492 216.48 310.276 213.593 329.127C210.445 349.763 212.281 370.069 221.793 387.663H224.417V387.597Z" fill="white"/>
<path d="M251.182 387.597C250.985 381.314 250.001 373.707 247.246 365.307C246.656 363.521 246 361.669 245.213 359.817C244.36 357.701 243.376 355.584 242.326 353.467C241.67 352.078 240.883 350.689 240.096 349.3C236.947 343.744 232.093 338.519 226.189 333.691L224.155 332.037C221.531 329.987 218.842 328.069 215.955 326.15C215.43 325.754 214.84 325.423 214.25 325.092C206.706 320.264 198.44 315.964 190.502 312.26C189.781 311.93 189.059 311.599 188.338 311.268C172.397 304.059 157.899 299.23 152.848 297.709C151.602 297.312 150.946 297.114 150.946 297.114C150.946 297.114 151.011 297.841 151.142 299.164C151.864 306.771 155.013 334.484 163.082 359.354C163.344 360.082 163.606 360.875 163.803 361.603C164.787 364.447 165.771 367.225 166.886 369.937C167.214 370.665 167.477 371.458 167.805 372.186C170.232 377.874 172.987 383.099 176.136 387.663H251.182V387.597Z" fill="#A8A8C6"/>
<path d="M385.597 388.06C394.846 388.06 404.096 388.06 413.411 388.06C414.067 388.06 414.067 387.068 413.411 387.068C404.162 387.068 394.912 387.068 385.597 387.068C385.006 387.068 385.006 388.06 385.597 388.06Z" fill="#6A6A9E"/>
<path d="M190.437 387.068C186.238 387.068 182.04 387.068 177.842 387.068C177.186 387.068 177.186 388.06 177.842 388.06C182.04 388.06 186.238 388.06 190.437 388.06C191.027 388.06 191.027 387.068 190.437 387.068Z" fill="#6A6A9E"/>
<path d="M249.346 387.465C246.262 380.586 244.36 372.12 245.672 364.646C246.722 358.494 250.133 352.674 253.281 347.316C258.333 338.718 264.105 330.45 270.272 322.579C270.469 322.314 270.141 321.983 269.944 322.248C263.253 330.714 257.021 339.71 251.707 349.102C248.755 354.327 245.672 360.082 245.016 366.167C244.294 373.376 246 381.181 248.952 387.663C249.083 387.994 249.477 387.729 249.346 387.465Z" fill="#6A6A9E"/>
<path d="M284.901 316.163C290.28 328.002 293.101 340.371 294.347 353.269C295.462 365.241 294.675 377.345 287.459 387.465C287.262 387.729 287.722 387.994 287.853 387.729C295.069 377.543 295.922 365.373 294.806 353.335C293.56 340.305 290.739 327.87 285.294 315.964C285.229 315.634 284.77 315.898 284.901 316.163Z" fill="#6A6A9E"/>
<path d="M177.382 306.771C188.469 311.401 199.358 316.56 209.854 322.513C216.808 326.415 223.105 330.714 228.681 336.469C236.16 344.141 242.851 351.417 245.869 362.066C245.934 362.397 246.459 362.264 246.328 361.934C244.294 354.79 240.752 348.837 235.897 343.348C231.24 338.122 226.451 332.831 220.744 328.73C210.182 321.19 198.243 315.568 186.501 310.21C183.549 308.887 180.531 307.564 177.579 306.308C177.185 306.175 177.054 306.638 177.382 306.771Z" fill="#6A6A9E"/>
<path d="M372.739 173.89C372.674 174.419 372.608 174.948 372.477 175.477C370.706 186.06 361.325 189.235 365.064 182.488C367.491 178.123 368.147 174.353 368.278 172.302C368.344 171.244 368.278 170.582 368.278 170.582C368.278 170.582 368.278 171.178 368.147 172.236C367.885 174.683 366.77 179.379 362.637 184.076C358.176 189.169 352.338 189.367 351.944 187.78C348.205 189.499 346.958 186.258 346.958 186.258C346.958 186.258 353.322 180.57 356.798 175.146C357.717 173.757 358.373 172.368 358.766 171.112C359.947 166.812 360.8 160.595 361.194 157.155C361.39 155.634 361.456 154.708 361.456 154.708L371.821 158.743C371.821 158.743 372.083 159.338 372.346 160.529C372.936 162.976 373.658 167.474 372.739 173.89Z" fill="#E8F6EE"/>
<path d="M372.739 173.89C371.296 173.03 369.787 172.567 368.278 172.368C368.213 172.368 368.213 172.368 368.213 172.368C363.752 171.839 359.357 173.823 356.864 175.279C357.782 173.89 358.438 172.501 358.832 171.244C360.013 166.945 360.865 160.727 361.259 157.288L372.477 160.661C372.936 162.976 373.657 167.474 372.739 173.89Z" fill="#D9F0E3"/>
<path d="M395.043 111.781C395.043 111.781 388.942 111.451 387.499 105.498C387.499 105.498 388.877 107.614 394.453 107.945C394.453 107.945 389.795 106.688 387.499 100.074C387.499 100.074 392.288 107.681 397.995 105.498C397.995 105.498 397.274 101.529 390.517 99.2143C390.517 99.2143 394.256 98.156 397.995 100.273C401.734 102.389 402.259 104.572 402.259 104.572C402.259 104.572 406.326 97.8253 398.717 90.1527C391.107 82.4802 384.678 82.8109 384.678 82.8109C384.678 82.8109 393.403 83.0093 400.619 90.1527C407.835 97.2962 407.966 101.662 407.966 101.662C407.966 101.662 410.853 97.7592 409.147 89.8882C407.507 82.0172 398.192 75.5352 398.192 75.5352C398.192 75.5352 408.491 81.2234 411.312 88.3669C414.133 95.5103 411.312 107.151 411.312 107.151L398.586 110.922L395.043 111.781Z" fill="#17C671"/>
<path d="M410.459 106.821C410.459 106.821 413.805 101.728 413.739 93.526C413.608 85.3243 416.954 77.1226 416.954 77.1226C416.954 77.1226 416.626 88.9622 418.725 92.0047L418.003 85.655C418.003 85.655 422.333 89.4251 420.693 99.6773C419.053 109.863 416.363 113.7 416.363 113.7L410.459 106.821Z" fill="#17C671"/>
<path d="M414.461 117.602C414.461 117.602 420.89 115.552 421.939 108.144C422.989 100.802 428.893 92.8646 428.893 92.8646C428.893 92.8646 422.464 96.3701 419.906 100.669C417.413 104.969 417.216 110.723 416.232 113.633C415.379 116.544 414.461 117.602 414.461 117.602Z" fill="#17C671"/>
<path d="M414.526 117.8L414.133 119.719L407.901 125.936C407.901 125.936 405.277 126.267 404.227 126.134C403.178 126.002 402.85 128.846 402.85 128.846C402.85 128.846 402.85 128.846 404.949 130.103C407.048 131.36 406.326 139.694 397.011 148.821C395.896 149.946 394.518 150.872 393.01 151.666C393.01 151.666 393.01 151.666 392.944 151.666C382.317 157.155 364.408 154.245 363.227 150.343C363.162 150.21 363.162 150.012 363.096 149.88C362.834 148.292 363.293 145.845 364.408 143.133C366.507 137.776 370.968 131.492 376.347 128.846C384.678 124.745 389.598 120.314 392.682 114.493C395.83 108.673 406.13 103.778 412.755 107.614C419.512 111.715 414.526 117.8 414.526 117.8Z" fill="#E8F6EE"/>
<path d="M382.841 145.514C374.707 149.88 372.018 146.176 365.458 149.284C364.474 149.747 363.752 149.946 363.227 149.946C362.965 148.358 363.424 145.911 364.539 143.199C365.064 142.604 366.77 142.009 371.821 142.604C379.824 143.53 383.038 142.604 387.827 137.379C392.485 132.22 390.976 141.149 382.841 145.514Z" fill="#D9F0E3"/>
<path d="M298.546 99.6773C298.546 99.6773 288.509 110.723 291.658 119.917C295.528 131.161 298.218 128.251 295.922 139.628C293.56 151.004 296.184 167.143 303.138 166.746C310.026 166.349 315.798 166.614 321.965 174.22C328.197 181.827 347.024 181.496 347.024 168.929C347.024 156.362 341.12 161.256 336.922 149.152C332.658 137.048 336.462 135.064 336.2 124.415C335.938 113.832 332.92 115.618 329.378 112.906C325.835 110.194 328.197 103.91 322.03 98.2883C316.52 93.3276 298.546 99.6773 298.546 99.6773Z" fill="#545484"/>
<path d="M265.09 141.347C265.09 141.347 248.427 210.731 252.298 215.295C256.168 219.859 258.858 215.163 260.629 202C262.4 188.904 267.386 142.273 267.386 142.273L265.09 141.347Z" fill="#17C671"/>
<path d="M264.434 139.826C264.434 139.826 255.905 206.432 260.826 211.856C265.746 217.279 268.042 206.432 267.32 186.787C266.664 167.077 267.32 142.339 267.32 142.339L264.434 139.826Z" fill="#17C671"/>
<path d="M271.19 140.487C271.19 140.487 276.766 203.059 271.19 205.572C265.614 208.152 267.648 141.943 267.648 141.943L271.19 140.487Z" fill="#17C671"/>
<path d="M282.08 99.4127C282.014 100.14 281.949 100.868 281.883 101.529C280.374 116.874 279.587 123.687 270.01 128.912C260.038 134.402 260.826 136.32 252.494 120.909C250.461 117.205 248.886 113.898 247.706 110.988C243.835 101.794 243.77 96.3701 246.459 93.5921C250.002 89.8881 252.954 91.2771 252.494 87.5731C252.035 83.8691 244.688 72.1618 244.688 72.1618C244.688 72.1618 241.211 71.5665 244.688 66.8704C248.165 62.1081 260.826 63.894 265.024 68.5901C269.222 73.3524 271.125 83.1415 274.733 83.6045C278.341 84.1337 283.786 82.5462 282.08 99.4127Z" fill="#17C671"/>
<path d="M246.525 72.8894C246.525 72.8894 247.312 70.1114 253.281 70.2437C259.185 70.376 261.285 75.7997 259.71 76.1304C258.136 76.4611 256.561 76.1304 256.496 81.0911C256.365 86.0518 254.397 86.4487 252.363 85.3243C252.363 85.3243 252.166 83.0093 250.92 81.0911C250.854 81.0911 250.264 75.2044 246.525 72.8894Z" fill="#E8F6EE"/>
<path d="M254.79 75.9982C255.334 75.9982 255.774 75.5244 255.774 74.9399C255.774 74.3554 255.334 73.8816 254.79 73.8816C254.247 73.8816 253.806 74.3554 253.806 74.9399C253.806 75.5244 254.247 75.9982 254.79 75.9982Z" fill="#17C671"/>
<path d="M281.883 101.529C280.374 116.874 279.587 123.687 270.01 128.912C260.038 134.402 260.826 136.32 252.494 120.909C250.461 117.205 248.886 113.898 247.706 110.988C247.706 110.988 247.837 110.855 248.099 110.657C248.821 110.062 250.592 109.202 252.954 110.988C256.102 113.369 256.627 119.851 262.794 117.602C268.96 115.419 268.37 118.594 273.683 117.337C278.931 116.081 277.488 103.58 281.883 101.529Z" fill="#17C671"/>
<path d="M302.35 103.58V105.167C302.35 105.167 300.645 103.977 299.792 105.829C298.939 107.614 299.726 111.252 301.432 111.98C303.137 112.707 303.137 112.707 303.137 112.707C303.137 112.707 303.072 115.948 305.04 117.271C307.008 118.528 310.813 121.306 314.552 119.719C318.291 118.131 320.39 114.692 321.505 110.525C322.621 106.424 321.505 104.77 321.505 104.77L302.35 103.58Z" fill="#D4D4E3"/>
<path d="M299.398 98.4867C299.398 98.4867 299.202 92.2693 300.12 89.822C301.038 87.3747 306.155 85.7211 310.026 85.7211C313.962 85.7211 318.882 86.1841 320.718 89.359C322.621 92.5338 321.899 98.2883 321.899 98.2883C321.899 98.2883 312.846 104.175 299.398 98.4867Z" fill="#C4E8D4"/>
<path d="M299.398 98.4867L298.546 99.8095C298.546 99.8095 302.547 105.696 306.417 106.688C310.353 107.747 322.949 106.953 324.785 104.638C326.557 102.323 321.899 98.2883 321.899 98.2883C321.899 98.2883 312.19 103.381 299.398 98.4867Z" fill="#D9F0E3"/>
<path d="M417.347 158.412V162.976C417.347 162.976 389.402 168.532 373.789 166.283C358.176 164.1 338.955 152.062 336.266 151.864C333.576 151.666 326.098 193.137 326.098 193.137C310.878 202.199 288.181 191.484 288.181 191.484C288.181 191.484 277.947 154.576 276.701 151.004C275.454 147.432 233.536 158.081 223.171 157.354C209.33 156.362 184.664 132.881 184.664 132.881L185.845 129.508L186.37 128.053C186.37 128.053 218.645 142.935 224.09 142.736C229.469 142.538 250.986 131.227 268.238 127.127C285.557 123.092 302.81 123.158 302.81 123.158H312.978C312.978 123.158 326.229 122.629 341.973 129.905C357.979 137.313 371.886 150.607 376.085 151.996C380.152 153.518 417.347 158.412 417.347 158.412Z" fill="#D9F0E3"/>
<path d="M417.347 161.256V162.91C417.347 162.91 389.402 168.466 373.789 166.217C358.176 164.034 338.955 151.996 336.266 151.798C333.576 151.599 326.098 193.071 326.098 193.071C310.878 202.133 288.181 191.417 288.181 191.417C288.181 191.417 277.947 154.51 276.701 150.938C275.454 147.366 233.536 158.015 223.171 157.288C209.33 156.296 184.664 132.815 184.664 132.815L185.845 129.442C185.845 129.442 209.264 149.351 225.73 150.21C242.195 151.136 267.32 139.231 279.194 148.028C291.067 156.825 291.395 171.575 310.682 172.765C329.968 173.956 327.606 147.432 338.168 149.946C348.73 152.459 361.587 163.571 382.907 164.299C398.192 164.894 411.246 162.579 417.347 161.256Z" fill="#C4E8D4"/>
<path d="M186.304 128.053C186.304 128.053 184.533 124.878 180.531 125.341C176.464 125.804 175.677 127.92 177.317 128.053C178.957 128.119 184.664 132.881 184.664 132.881L186.304 128.053Z" fill="#D4D4E3"/>
<path d="M183.788 125.5C183.788 125.5 177.359 122.325 173.489 124.045C169.619 125.698 166.011 131.188 168.831 130.659C171.652 130.13 174.079 127.616 175.851 128.344C177.622 129.071 173.751 128.608 174.145 130.725C174.539 132.842 183.854 130.064 183.854 130.064V125.5H183.788Z" fill="#D4D4E3"/>
<path d="M416.822 125.605C416.494 127.325 415.838 128.582 415.182 129.508C414.133 130.831 413.083 131.294 413.083 131.294C413.083 131.294 413.083 127.259 411.509 125.275C411.509 125.275 410.394 126.862 411.509 129.442C411.509 129.442 409.344 129.442 407.901 125.936C407.901 125.936 408.885 120.38 414.526 117.8C414.526 117.8 415.051 118.396 415.576 119.388C416.363 120.843 417.282 123.092 416.822 125.605Z" fill="#C4E8D4"/>
<path d="M405.867 120.578C405.867 121.24 405.342 121.769 404.686 121.769C404.03 121.769 403.506 121.24 403.506 120.578C403.506 119.917 404.03 119.388 404.686 119.388C405.342 119.388 405.867 119.917 405.867 120.578Z" fill="#17C671"/>
<path d="M401.406 120.975C402.39 121.769 402.85 122.761 402.456 123.224C402.062 123.687 401.013 123.423 400.094 122.629C399.176 121.835 398.651 120.843 399.045 120.38C399.373 119.917 400.422 120.182 401.406 120.975Z" fill="#C4E8D4"/>
<path d="M326.098 193.137L346.237 378.999H336.003C329.706 347.382 308.123 239.437 306.418 239.569C304.974 239.702 268.566 378.866 268.566 378.866L268.829 378.999H260.235C269.944 256.37 288.246 191.484 288.246 191.484C311.075 196.775 326.098 193.137 326.098 193.137Z" fill="#545484"/>
<path d="M302.678 111.451V112.178V124.349C302.678 124.349 307.336 130.632 312.19 124.349V113.964L302.678 111.451Z" fill="#D4D4E3"/>
<path d="M246.459 93.5922C244.95 91.5418 243.77 89.6236 242.917 87.9039C239.046 80.0329 241.211 75.6675 242.982 73.617C243.835 72.6249 244.622 72.228 244.622 72.228C250.264 73.4186 250.789 81.0912 250.789 81.0912C245.672 81.488 246.459 93.5922 246.459 93.5922Z" fill="#D9F0E3"/>
<path d="M250.854 81.0911C250.854 81.0911 252.232 81.8187 252.494 87.6393C252.494 87.6393 249.608 88.896 246.918 86.3826C246.918 86.3164 246.262 81.6864 250.854 81.0911Z" fill="#17C671"/>
<path d="M302.678 112.443C302.678 112.443 302.547 119.454 312.19 120.115V121.967C312.19 121.967 306.024 123.621 302.678 118.594V112.443Z" fill="#A8A8C6"/>
<path d="M282.211 387.597H259.514C259.71 384.687 259.973 381.843 260.17 378.999H268.763C282.998 383.298 282.211 387.597 282.211 387.597Z" fill="#3F3F75"/>
<path d="M360.472 387.531L336.594 387.597C336.594 387.597 336.069 379.462 336.003 378.999H346.237C360.472 384.092 359.619 386.076 360.341 387.266C360.341 387.333 360.406 387.333 360.406 387.399C360.406 387.465 360.472 387.531 360.472 387.531Z" fill="#3F3F75"/>
<path d="M302.678 122.96C295.856 123.224 288.968 123.753 282.211 124.547C277.16 125.142 272.109 125.87 267.189 127.06C262.072 128.251 257.152 130.301 252.232 132.087C246.656 134.138 241.08 136.254 235.569 138.371C232.093 139.694 228.353 141.612 224.68 142.273C220.809 143.001 215.627 140.355 212.15 139.032C203.425 135.725 194.963 131.624 186.435 127.788C186.304 127.722 186.107 127.788 186.042 127.92C185.517 129.508 184.926 131.161 184.402 132.749C184.402 132.815 184.402 132.947 184.467 133.013C194.045 141.678 204.475 150.872 216.546 155.833C224.418 159.074 233.405 156.692 241.473 155.37C250.133 153.914 258.792 152.393 267.451 151.07C269.157 150.806 270.862 150.607 272.568 150.541C274.536 150.475 276.045 150.277 276.832 152.129C278.341 155.833 279.128 160.066 280.177 163.902C282.801 173.096 285.425 182.29 287.984 191.484C288.049 191.814 288.574 191.682 288.443 191.351C286.541 184.605 284.638 177.792 282.67 171.045C281.358 166.482 280.112 161.918 278.8 157.354C278.341 155.7 278.013 151.93 276.766 150.607C275.126 148.821 269.681 150.144 267.582 150.475C265.549 150.74 263.581 151.136 261.547 151.467C252.691 152.922 243.835 154.444 234.979 155.899C232.29 156.362 229.665 156.759 226.91 156.825C218.513 157.155 212.019 153.385 205.197 148.888C199.227 144.985 193.782 140.554 188.469 135.857C187.616 135.13 185.123 133.675 184.795 132.616C184.73 132.352 186.763 127.986 186.173 128.185C186.96 127.986 189.715 129.772 190.371 130.103C192.47 131.029 194.569 131.955 196.669 132.947C202.376 135.527 208.083 138.172 213.987 140.289C216.808 141.281 219.957 142.604 222.974 142.869C224.614 143.001 225.992 142.339 227.501 141.81C234.257 139.429 240.949 136.783 247.706 134.27C254.593 131.69 261.547 128.78 268.763 127.193C279.784 124.812 291.329 123.819 302.613 123.423C303.006 123.423 303.006 122.96 302.678 122.96Z" fill="#17C671"/>
<rect width="289.113" height="143.739" rx="5.71411" transform="matrix(0.989476 0.144695 -0.142763 0.989757 160.476 126.604)" fill="white"/>
<ellipse rx="5.7653" ry="5.68495" transform="matrix(0.989325 0.145739 -0.142418 0.989808 233.861 265.04)" fill="#17C671"/>
<path d="M244.22 269.523L245.104 263.388L247.767 263.78C248.362 263.868 248.818 264.102 249.133 264.483C249.449 264.857 249.568 265.311 249.492 265.842C249.415 266.374 249.169 266.776 248.754 267.049C248.345 267.323 247.846 267.417 247.256 267.33L245.267 267.037L244.895 269.623L244.22 269.523ZM247.627 264.377L245.691 264.092L245.352 266.45L247.288 266.735C247.702 266.796 248.047 266.739 248.323 266.565C248.599 266.385 248.764 266.114 248.816 265.752C248.868 265.39 248.787 265.085 248.572 264.839C248.357 264.592 248.042 264.439 247.627 264.377ZM249.77 270.34L250.402 265.949L251.05 266.045L250.96 266.667C251.122 266.458 251.316 266.308 251.544 266.216C251.773 266.119 252.022 266.09 252.29 266.129C252.372 266.141 252.444 266.158 252.507 266.179C252.57 266.194 252.632 266.218 252.693 266.251L252.607 266.847C252.535 266.812 252.461 266.784 252.387 266.761C252.314 266.732 252.239 266.712 252.163 266.701C251.895 266.662 251.647 266.706 251.42 266.833C251.193 266.955 251.004 267.154 250.851 267.43L250.418 270.436L249.77 270.34ZM252.597 268.51C252.642 268.195 252.743 267.905 252.901 267.642C253.058 267.379 253.25 267.159 253.478 266.984C253.712 266.81 253.975 266.684 254.266 266.608C254.557 266.531 254.858 266.516 255.167 266.562C255.477 266.607 255.758 266.708 256.009 266.865C256.267 267.022 256.48 267.217 256.65 267.451C256.825 267.686 256.95 267.952 257.027 268.249C257.103 268.547 257.119 268.854 257.073 269.169C257.027 269.491 256.925 269.783 256.768 270.046C256.611 270.309 256.415 270.528 256.181 270.703C255.953 270.878 255.694 271.004 255.403 271.08C255.117 271.157 254.82 271.173 254.51 271.128C254.2 271.082 253.917 270.981 253.659 270.824C253.402 270.666 253.185 270.47 253.01 270.236C252.841 270.002 252.718 269.736 252.642 269.439C252.566 269.141 252.55 268.831 252.597 268.51ZM254.593 270.549C254.815 270.582 255.029 270.569 255.234 270.509C255.445 270.451 255.632 270.356 255.794 270.225C255.963 270.089 256.103 269.924 256.214 269.732C256.326 269.534 256.399 269.315 256.434 269.075C256.468 268.835 256.459 268.607 256.407 268.391C256.355 268.169 256.268 267.971 256.144 267.797C256.025 267.625 255.873 267.48 255.687 267.363C255.507 267.247 255.306 267.173 255.084 267.14C254.862 267.107 254.646 267.12 254.434 267.179C254.229 267.238 254.042 267.333 253.875 267.463C253.713 267.594 253.573 267.759 253.455 267.956C253.344 268.149 253.271 268.365 253.236 268.604C253.202 268.844 253.21 269.075 253.262 269.297C253.314 269.514 253.399 269.711 253.516 269.89C253.64 270.063 253.796 270.208 253.981 270.325C254.167 270.442 254.371 270.517 254.593 270.549ZM257.57 267.005L258.604 267.157L258.723 266.324C258.785 265.898 258.949 265.588 259.215 265.394C259.482 265.195 259.835 265.128 260.273 265.192C260.39 265.209 260.494 265.231 260.586 265.256C260.678 265.282 260.765 265.315 260.849 265.357L260.765 265.936C260.67 265.892 260.583 265.858 260.503 265.835C260.423 265.805 260.334 265.783 260.235 265.768C259.978 265.73 259.776 265.766 259.629 265.876C259.489 265.981 259.399 266.167 259.36 266.436L259.243 267.251L260.548 267.443L260.469 267.995L259.164 267.803L258.611 271.642L257.971 271.548L258.524 267.709L257.49 267.557L257.57 267.005ZM261.695 266.753C261.578 266.736 261.482 266.677 261.407 266.576C261.332 266.476 261.303 266.367 261.32 266.25C261.337 266.128 261.396 266.032 261.495 265.963C261.595 265.888 261.704 265.859 261.821 265.876C261.943 265.895 262.039 265.953 262.108 266.053C262.184 266.148 262.213 266.256 262.196 266.379C262.179 266.496 262.12 266.592 262.02 266.667C261.926 266.742 261.817 266.771 261.695 266.753ZM261.898 267.642L261.265 272.033L260.617 271.937L261.249 267.547L261.898 267.642ZM263.055 271.294L263.467 268.437L262.521 268.298L262.6 267.745L263.546 267.885L263.706 266.772L264.37 266.699L264.186 267.979L265.508 268.174L265.429 268.726L264.106 268.531L263.719 271.222C263.685 271.455 263.713 271.633 263.803 271.753C263.894 271.868 264.059 271.943 264.299 271.978C264.421 271.996 264.531 272.003 264.627 272C264.728 271.997 264.838 271.983 264.955 271.958L264.873 272.528C264.756 272.553 264.626 272.563 264.483 272.56C264.346 272.558 264.214 272.548 264.085 272.529C263.706 272.473 263.427 272.339 263.248 272.128C263.07 271.917 263.006 271.639 263.055 271.294Z" fill="#9696BB"/>
<ellipse rx="5.85227" ry="5.68485" transform="matrix(0.989325 0.145737 -0.14242 0.989808 298.204 275.273)" fill="#EB5757"/>
<path d="M309.229 280.4L310.112 274.265L310.787 274.364L309.991 279.894L313.644 280.432L313.557 281.037L309.229 280.4ZM314.26 278.894C314.306 278.579 314.407 278.289 314.564 278.026C314.721 277.763 314.914 277.543 315.142 277.368C315.376 277.194 315.638 277.068 315.93 276.992C316.221 276.915 316.521 276.9 316.831 276.946C317.14 276.991 317.421 277.092 317.673 277.249C317.931 277.406 318.144 277.601 318.313 277.835C318.488 278.07 318.614 278.336 318.69 278.633C318.767 278.931 318.782 279.238 318.737 279.553C318.69 279.875 318.589 280.167 318.432 280.43C318.274 280.693 318.079 280.912 317.845 281.087C317.617 281.262 317.357 281.388 317.066 281.464C316.781 281.541 316.483 281.557 316.174 281.512C315.864 281.466 315.581 281.365 315.323 281.207C315.065 281.05 314.849 280.854 314.674 280.62C314.505 280.386 314.382 280.12 314.306 279.823C314.229 279.525 314.214 279.215 314.26 278.894ZM316.257 280.933C316.479 280.966 316.692 280.953 316.898 280.893C317.109 280.835 317.296 280.74 317.458 280.609C317.626 280.473 317.766 280.308 317.877 280.116C317.989 279.918 318.063 279.699 318.097 279.459C318.132 279.22 318.123 278.991 318.07 278.775C318.019 278.553 317.931 278.355 317.807 278.181C317.689 278.009 317.537 277.864 317.351 277.747C317.171 277.631 316.97 277.557 316.748 277.524C316.526 277.491 316.309 277.504 316.098 277.563C315.893 277.622 315.706 277.717 315.538 277.847C315.376 277.978 315.236 278.143 315.118 278.34C315.007 278.533 314.934 278.749 314.9 278.988C314.865 279.228 314.874 279.459 314.925 279.681C314.978 279.898 315.063 280.095 315.18 280.274C315.304 280.447 315.459 280.592 315.645 280.709C315.831 280.826 316.035 280.901 316.257 280.933ZM318.961 281.215L319.416 280.853C319.587 281.069 319.788 281.248 320.019 281.389C320.255 281.525 320.502 281.612 320.759 281.65C321.11 281.702 321.406 281.671 321.649 281.557C321.892 281.444 322.03 281.27 322.064 281.037C322.091 280.85 322.045 280.694 321.926 280.569C321.813 280.439 321.62 280.333 321.345 280.251L320.598 280.033C320.17 279.904 319.861 279.728 319.673 279.503C319.491 279.273 319.424 278.992 319.472 278.659C319.525 278.291 319.724 278.01 320.068 277.816C320.412 277.616 320.824 277.552 321.303 277.622C321.619 277.668 321.91 277.759 322.177 277.894C322.449 278.029 322.706 278.216 322.946 278.455L322.541 278.843C322.319 278.643 322.097 278.485 321.876 278.369C321.66 278.253 321.432 278.178 321.192 278.143C320.895 278.099 320.64 278.13 320.428 278.236C320.221 278.343 320.103 278.504 320.072 278.721C320.045 278.908 320.088 279.063 320.201 279.187C320.315 279.305 320.513 279.406 320.793 279.489L321.54 279.706C321.97 279.829 322.278 280.009 322.464 280.245C322.658 280.477 322.73 280.759 322.682 281.092C322.655 281.279 322.583 281.45 322.465 281.606C322.354 281.757 322.208 281.881 322.027 281.98C321.852 282.074 321.652 282.139 321.426 282.178C321.2 282.21 320.962 282.208 320.711 282.171C320.349 282.118 320.016 282.009 319.711 281.845C319.414 281.676 319.164 281.466 318.961 281.215ZM322.939 281.801L323.394 281.438C323.565 281.655 323.766 281.833 323.997 281.975C324.233 282.111 324.48 282.198 324.737 282.236C325.088 282.287 325.384 282.256 325.627 282.143C325.87 282.03 326.008 281.856 326.042 281.622C326.069 281.435 326.023 281.28 325.904 281.155C325.791 281.025 325.598 280.919 325.323 280.836L324.576 280.619C324.148 280.49 323.839 280.314 323.651 280.089C323.469 279.859 323.402 279.578 323.45 279.245C323.503 278.877 323.702 278.596 324.046 278.402C324.39 278.202 324.802 278.137 325.281 278.208C325.597 278.254 325.888 278.345 326.155 278.48C326.427 278.615 326.684 278.802 326.924 279.04L326.519 279.428C326.297 279.229 326.075 279.071 325.854 278.954C325.638 278.839 325.41 278.764 325.17 278.729C324.873 278.685 324.618 278.716 324.406 278.822C324.199 278.929 324.081 279.09 324.05 279.306C324.023 279.493 324.066 279.649 324.179 279.773C324.293 279.891 324.491 279.992 324.771 280.075L325.518 280.292C325.948 280.415 326.256 280.595 326.442 280.831C326.636 281.062 326.708 281.345 326.66 281.678C326.633 281.865 326.561 282.036 326.443 282.192C326.332 282.342 326.186 282.467 326.005 282.566C325.83 282.659 325.63 282.725 325.404 282.764C325.178 282.796 324.94 282.794 324.689 282.757C324.327 282.703 323.994 282.595 323.689 282.431C323.392 282.261 323.142 282.052 322.939 281.801Z" fill="#9696BB"/>
<path opacity="0.56" d="M268.599 170.749L267.317 170.561L266.703 161.981L267.985 162.169L268.36 168.713L271.155 162.634L272.342 162.808L273.299 169.437L275.512 163.273L276.747 163.454L273.728 171.501L272.446 171.313L271.467 164.499L268.599 170.749ZM281.395 171.921C281.008 172.139 280.615 172.288 280.215 172.367C279.817 172.438 279.392 172.44 278.941 172.374C278.498 172.309 278.094 172.169 277.729 171.954C277.365 171.731 277.061 171.46 276.816 171.141C276.571 170.822 276.393 170.46 276.281 170.056C276.179 169.645 276.16 169.217 276.224 168.774C276.287 168.339 276.425 167.942 276.639 167.586C276.852 167.229 277.113 166.931 277.422 166.694C277.732 166.456 278.084 166.285 278.479 166.182C278.875 166.07 279.282 166.045 279.702 166.106C280.114 166.167 280.485 166.306 280.818 166.524C281.159 166.736 281.435 167.003 281.647 167.325C281.869 167.641 282.026 168.003 282.121 168.413C282.215 168.823 282.23 169.25 282.166 169.694L282.116 170.038L277.343 169.338C277.35 169.849 277.52 170.298 277.851 170.686C278.184 171.067 278.612 171.295 279.135 171.372C279.427 171.415 279.715 171.408 279.998 171.353C280.281 171.297 280.529 171.2 280.743 171.062L281.395 171.921ZM279.534 167.1C279.083 167.034 278.665 167.127 278.281 167.378C277.905 167.63 277.64 167.987 277.484 168.449L281.069 168.975C281.049 168.503 280.895 168.088 280.607 167.731C280.327 167.374 279.969 167.164 279.534 167.1ZM288.225 172.922C287.837 173.141 287.444 173.289 287.045 173.368C286.646 173.439 286.222 173.441 285.77 173.375C285.327 173.31 284.923 173.17 284.558 172.955C284.194 172.732 283.89 172.461 283.645 172.142C283.4 171.823 283.222 171.461 283.111 171.057C283.009 170.646 282.99 170.219 283.054 169.775C283.117 169.34 283.255 168.944 283.468 168.587C283.681 168.23 283.943 167.933 284.252 167.695C284.561 167.457 284.913 167.287 285.308 167.183C285.704 167.071 286.112 167.046 286.531 167.107C286.943 167.168 287.315 167.307 287.647 167.526C287.988 167.737 288.265 168.004 288.477 168.326C288.698 168.642 288.856 169.005 288.95 169.415C289.044 169.825 289.059 170.251 288.995 170.695L288.945 171.039L284.172 170.339C284.179 170.85 284.349 171.299 284.681 171.687C285.014 172.068 285.441 172.296 285.964 172.373C286.257 172.416 286.545 172.409 286.828 172.354C287.11 172.298 287.359 172.201 287.573 172.063L288.225 172.922ZM286.363 168.102C285.912 168.035 285.495 168.128 285.111 168.379C284.735 168.631 284.469 168.988 284.313 169.45L287.899 169.976C287.878 169.504 287.724 169.089 287.436 168.732C287.156 168.375 286.799 168.165 286.363 168.102ZM289.695 173.841L290.897 165.528L292.122 165.441L291.372 170.631L294.689 168.4L296.078 168.604L292.557 170.986L295.37 174.673L293.803 174.444L291.294 171.165L290.882 174.016L289.695 173.841ZM297.714 175.017L302.359 167.208L303.82 167.422L306.013 176.234L304.66 176.035L304.05 173.46L300.334 172.915L299.008 175.207L297.714 175.017ZM300.899 171.942L303.796 172.367L302.875 168.509L300.899 171.942ZM306.728 176.338L307.602 170.293L308.789 170.467L308.702 171.073C308.973 170.87 309.268 170.732 309.586 170.657C309.913 170.575 310.259 170.561 310.623 170.615C311.312 170.716 311.846 171.02 312.225 171.529C312.605 172.029 312.745 172.628 312.644 173.325L312.094 177.125L310.907 176.951L311.428 173.352C311.496 172.877 311.411 172.485 311.173 172.175C310.944 171.859 310.604 171.667 310.153 171.601C309.836 171.555 309.538 171.58 309.257 171.676C308.984 171.773 308.747 171.937 308.544 172.166L307.915 176.512L306.728 176.338ZM315.361 177.713C314.704 177.617 314.194 177.368 313.832 176.967C313.469 176.567 313.327 176.093 313.406 175.547C313.489 174.977 313.771 174.561 314.254 174.3C314.737 174.032 315.359 173.953 316.118 174.064C316.411 174.107 316.692 174.181 316.96 174.285C317.229 174.381 317.482 174.499 317.721 174.639L317.814 173.997C317.875 173.57 317.795 173.231 317.573 172.98C317.35 172.729 317.002 172.569 316.527 172.499C316.25 172.458 315.954 172.46 315.641 172.503C315.329 172.538 314.974 172.615 314.577 172.735L314.266 171.78C314.748 171.632 315.198 171.54 315.616 171.504C316.034 171.461 316.441 171.468 316.837 171.526C317.621 171.641 318.199 171.919 318.571 172.362C318.953 172.798 319.094 173.36 318.994 174.049L318.416 178.052L317.252 177.881L317.328 177.359C317.027 177.533 316.716 177.649 316.392 177.707C316.069 177.764 315.725 177.766 315.361 177.713ZM314.55 175.69C314.507 175.983 314.596 176.238 314.815 176.457C315.042 176.676 315.357 176.815 315.761 176.874C316.077 176.921 316.377 176.916 316.66 176.86C316.943 176.805 317.205 176.698 317.446 176.539L317.597 175.494C317.386 175.334 317.158 175.207 316.912 175.115C316.668 175.014 316.396 174.942 316.095 174.898C315.668 174.835 315.314 174.876 315.034 175.021C314.755 175.166 314.593 175.389 314.55 175.69ZM322.211 169.851L320.971 178.426L319.784 178.252L320.986 169.939L322.211 169.851ZM323.795 179.422L324.111 178.911L322.578 172.489L323.885 172.68L324.986 177.559L327.601 173.225L328.883 173.413L324.983 179.754C324.614 180.355 324.231 180.768 323.834 180.993C323.437 181.226 322.961 181.301 322.407 181.22C322.281 181.202 322.163 181.176 322.054 181.144C321.953 181.121 321.864 181.092 321.788 181.057L321.939 180.011C322.016 180.039 322.094 180.062 322.172 180.082C322.258 180.103 322.356 180.121 322.467 180.137C322.736 180.177 322.98 180.136 323.2 180.014C323.426 179.902 323.625 179.705 323.795 179.422ZM328.29 178.699L329.044 178.009C329.325 178.301 329.619 178.538 329.924 178.72C330.238 178.895 330.565 179.008 330.905 179.058C331.333 179.121 331.693 179.088 331.986 178.962C332.279 178.835 332.445 178.637 332.484 178.368C332.515 178.154 332.461 177.972 332.321 177.822C332.181 177.672 331.948 177.549 331.622 177.453L330.552 177.138C329.971 176.964 329.547 176.716 329.278 176.394C329.018 176.065 328.922 175.666 328.99 175.199C329.069 174.653 329.35 174.245 329.833 173.977C330.318 173.7 330.913 173.613 331.617 173.717C332.06 173.782 332.471 173.906 332.848 174.091C333.233 174.277 333.597 174.528 333.939 174.845L333.221 175.54C332.92 175.27 332.619 175.064 332.316 174.923C332.022 174.775 331.717 174.677 331.4 174.631C331.036 174.577 330.732 174.61 330.489 174.728C330.245 174.846 330.106 175.027 330.07 175.273C330.038 175.494 330.089 175.676 330.222 175.817C330.364 175.951 330.61 176.071 330.958 176.179L332.028 176.494C332.609 176.668 333.033 176.92 333.301 177.25C333.576 177.582 333.68 177.981 333.612 178.448C333.574 178.717 333.47 178.961 333.301 179.179C333.141 179.39 332.934 179.561 332.681 179.694C332.435 179.828 332.15 179.924 331.827 179.981C331.504 180.031 331.165 180.03 330.809 179.978C330.286 179.901 329.806 179.754 329.369 179.536C328.94 179.32 328.58 179.04 328.29 178.699ZM335.874 173.443C335.676 173.414 335.516 173.318 335.394 173.155C335.274 172.983 335.228 172.799 335.256 172.601C335.285 172.403 335.381 172.243 335.544 172.121C335.708 171.992 335.889 171.941 336.087 171.97C336.285 172 336.444 172.1 336.565 172.271C336.695 172.436 336.745 172.617 336.717 172.815C336.688 173.013 336.588 173.176 336.416 173.304C336.252 173.426 336.072 173.472 335.874 173.443ZM336.327 174.504L335.453 180.549L334.266 180.375L335.14 174.33L336.327 174.504ZM336.395 179.887L337.149 179.197C337.43 179.489 337.723 179.726 338.028 179.908C338.343 180.083 338.67 180.196 339.01 180.246C339.438 180.309 339.798 180.277 340.091 180.15C340.384 180.023 340.55 179.825 340.589 179.556C340.62 179.342 340.566 179.16 340.426 179.01C340.286 178.86 340.053 178.737 339.727 178.641L338.657 178.326C338.076 178.152 337.651 177.904 337.383 177.582C337.123 177.253 337.027 176.854 337.095 176.387C337.174 175.841 337.455 175.433 337.938 175.165C338.423 174.888 339.017 174.801 339.722 174.905C340.165 174.97 340.575 175.095 340.953 175.279C341.338 175.465 341.702 175.717 342.044 176.033L341.325 176.729C341.025 176.458 340.723 176.252 340.42 176.111C340.127 175.963 339.821 175.865 339.505 175.819C339.141 175.766 338.837 175.798 338.594 175.916C338.35 176.034 338.211 176.215 338.175 176.461C338.143 176.683 338.194 176.864 338.327 177.005C338.469 177.139 338.714 177.26 339.063 177.367L340.133 177.682C340.714 177.856 341.138 178.108 341.405 178.438C341.681 178.77 341.785 179.169 341.717 179.636C341.678 179.905 341.574 180.149 341.406 180.367C341.246 180.578 341.039 180.75 340.785 180.882C340.54 181.016 340.255 181.112 339.931 181.169C339.609 181.219 339.27 181.218 338.914 181.166C338.391 181.089 337.911 180.942 337.474 180.724C337.044 180.508 336.685 180.228 336.395 179.887Z" fill="#26262A"/>
<path d="M187.58 170.977L186.469 167.646L185.981 171.045L185.397 170.959L185.996 166.784L186.831 166.907L187.76 169.767L189.448 167.294L190.282 167.417L189.683 171.592L189.093 171.505L189.582 168.099L187.58 170.977Z" fill="#D2D3ED"/>
<path d="M223.492 172.846L223.571 172.291L227.13 172.817L227.05 173.372L225.584 173.155L225.065 176.776L224.439 176.683L224.958 173.063L223.492 172.846Z" fill="#D2D3ED"/>
<path d="M260.595 181.984L259.951 181.889L259.638 177.58L260.282 177.675L260.474 180.961L261.873 177.91L262.469 177.998L262.953 181.328L264.061 178.233L264.681 178.324L263.17 182.365L262.526 182.27L262.031 178.847L260.595 181.984Z" fill="#D2D3ED"/>
<path d="M297.112 183.638L297.191 183.084L300.75 183.609L300.67 184.164L299.204 183.947L298.685 187.568L298.059 187.475L298.578 183.855L297.112 183.638Z" fill="#D2D3ED"/>
<path d="M333.356 192.648L333.955 188.473L337.037 188.928L336.958 189.477L334.502 189.114L334.318 190.396L335.94 190.636L335.863 191.173L334.241 190.933L333.982 192.74L333.356 192.648Z" fill="#D2D3ED"/>
<path d="M369.91 197.3L370.355 196.915C370.55 197.167 370.757 197.366 370.976 197.512C371.199 197.654 371.439 197.745 371.698 197.783C371.996 197.827 372.247 197.797 372.453 197.694C372.663 197.591 372.782 197.438 372.811 197.235C372.837 197.052 372.792 196.901 372.675 196.782C372.559 196.66 372.353 196.55 372.059 196.454L371.378 196.237C371.005 196.117 370.736 195.954 370.571 195.747C370.411 195.536 370.352 195.282 370.395 194.984C370.447 194.622 370.629 194.352 370.943 194.175C371.256 193.998 371.644 193.944 372.105 194.012C372.403 194.056 372.692 194.15 372.971 194.292C373.252 194.431 373.496 194.609 373.704 194.827L373.29 195.253C373.088 195.049 372.88 194.888 372.665 194.771C372.451 194.65 372.229 194.573 371.999 194.538C371.728 194.499 371.502 194.524 371.318 194.615C371.135 194.705 371.03 194.842 371.004 195.025C370.979 195.196 371.018 195.336 371.12 195.444C371.223 195.549 371.404 195.642 371.664 195.725L372.322 195.932C372.749 196.068 373.052 196.247 373.231 196.469C373.415 196.687 373.484 196.957 373.438 197.279C373.41 197.47 373.346 197.639 373.243 197.786C373.141 197.933 373.008 198.052 372.845 198.141C372.686 198.232 372.499 198.293 372.283 198.326C372.068 198.355 371.837 198.352 371.591 198.315C371.257 198.266 370.944 198.153 370.653 197.976C370.362 197.799 370.115 197.573 369.91 197.3Z" fill="#D2D3ED"/>
<line x1="2" y1="-2" x2="54.8451" y2="-2" transform="matrix(-0.143018 0.989719 -0.989438 -0.144944 183.707 179.275)" stroke="#D2D3ED" stroke-width="4" stroke-linecap="round" stroke-linejoin="round"/>
<line x1="2" y1="-2" x2="11.7699" y2="-2" transform="matrix(-0.143016 0.98972 -0.989438 -0.144947 179.284 211.655)" stroke="#C4183C" stroke-width="4" stroke-linecap="round" stroke-linejoin="round"/>
<line x1="2" y1="-2" x2="54.845" y2="-2" transform="matrix(-0.143017 0.989719 -0.989438 -0.144945 220.589 184.679)" stroke="#D2D3ED" stroke-width="4" stroke-linecap="round" stroke-linejoin="round"/>
<line x1="2" y1="-2" x2="17.4356" y2="-2" transform="matrix(-0.143016 0.98972 -0.989438 -0.144947 216.168 217.058)" stroke="#C4183C" stroke-width="4" stroke-linecap="round" stroke-linejoin="round"/>
<line x1="2" y1="-2" x2="54.8451" y2="-2" transform="matrix(-0.143018 0.989719 -0.989438 -0.144945 257.471 190.082)" stroke="#D2D3ED" stroke-width="4" stroke-linecap="round" stroke-linejoin="round"/>
<line x1="2" y1="-2" x2="17.4022" y2="-2" transform="matrix(-0.143016 0.989719 -0.989438 -0.144946 255.643 202.737)" stroke="#17C671" stroke-width="4" stroke-linecap="round" stroke-linejoin="round"/>
<line x1="2" y1="-2" x2="54.8451" y2="-2" transform="matrix(-0.143017 0.989719 -0.989438 -0.144946 294.354 195.485)" stroke="#D2D3ED" stroke-width="4" stroke-linecap="round" stroke-linejoin="round"/>
<line x1="2" y1="-2" x2="11.77" y2="-2" transform="matrix(-0.143015 0.98972 -0.989438 -0.144948 289.933 227.863)" stroke="#C4183C" stroke-width="4" stroke-linecap="round" stroke-linejoin="round"/>
<line x1="2" y1="-2" x2="54.8451" y2="-2" transform="matrix(-0.143017 0.989719 -0.989438 -0.144946 331.236 200.888)" stroke="#D2D3ED" stroke-width="4" stroke-linecap="round" stroke-linejoin="round"/>
<line x1="2" y1="-2" x2="11.77" y2="-2" transform="matrix(-0.143018 0.989719 -0.989438 -0.144945 328.872 219.035)" stroke="#17C671" stroke-width="4" stroke-linecap="round" stroke-linejoin="round"/>
<line x1="2" y1="-2" x2="54.845" y2="-2" transform="matrix(-0.143017 0.989719 -0.989438 -0.144946 368.119 206.291)" stroke="#D2D3ED" stroke-width="4" stroke-linecap="round" stroke-linejoin="round"/>
<line x1="2" y1="-2" x2="5.82894" y2="-2" transform="matrix(-0.143012 0.98972 -0.989437 -0.144952 364.635 230.4)" stroke="#17C671" stroke-width="4" stroke-linecap="round" stroke-linejoin="round"/>
<line x1="2" y1="-2" x2="54.8451" y2="-2" transform="matrix(-0.14277 0.989756 -0.989505 -0.144479 405.002 211.694)" stroke="#D2D3ED" stroke-width="4" stroke-linecap="round" stroke-linejoin="round"/>
<line x1="2" y1="-2" x2="11.77" y2="-2" transform="matrix(-0.143018 0.989719 -0.989438 -0.144945 402.637 229.84)" stroke="#17C671" stroke-width="4" stroke-linecap="round" stroke-linejoin="round"/>
<path d="M406.72 202.696L407.165 202.311C407.36 202.563 407.567 202.762 407.786 202.908C408.009 203.05 408.249 203.141 408.508 203.179C408.806 203.223 409.057 203.193 409.263 203.09C409.473 202.987 409.592 202.834 409.621 202.631C409.647 202.448 409.602 202.297 409.485 202.178C409.369 202.056 409.163 201.946 408.869 201.85L408.188 201.633C407.815 201.513 407.546 201.35 407.381 201.143C407.221 200.932 407.162 200.678 407.205 200.38C407.257 200.018 407.439 199.748 407.753 199.571C408.066 199.394 408.454 199.34 408.915 199.408C409.213 199.452 409.502 199.546 409.781 199.688C410.062 199.827 410.306 200.006 410.514 200.223L410.1 200.649C409.898 200.445 409.69 200.284 409.475 200.167C409.261 200.046 409.039 199.969 408.809 199.935C408.538 199.895 408.312 199.92 408.128 200.011C407.945 200.101 407.84 200.238 407.814 200.421C407.789 200.592 407.828 200.732 407.93 200.84C408.033 200.945 408.214 201.038 408.474 201.122L409.132 201.328C409.559 201.465 409.862 201.643 410.041 201.865C410.225 202.083 410.294 202.353 410.248 202.675C410.22 202.866 410.156 203.035 410.053 203.182C409.951 203.329 409.818 203.448 409.655 203.537C409.496 203.628 409.309 203.689 409.093 203.722C408.878 203.751 408.647 203.748 408.401 203.711C408.067 203.662 407.754 203.549 407.463 203.372C407.172 203.195 406.925 202.97 406.72 202.696Z" fill="#D2D3ED"/>
<line opacity="0.1" y1="-0.188291" x2="245.866" y2="-0.188291" transform="matrix(0.989425 0.145042 -0.143107 0.989707 170.546 209.673)" stroke="#545490" stroke-width="0.376583"/>
<path d="M391.173 154.51C390.058 154.311 388.942 154.179 387.827 153.981C387.499 153.914 387.368 154.444 387.696 154.444C388.811 154.642 389.926 154.774 391.042 154.973C391.304 155.039 391.435 154.51 391.173 154.51Z" fill="#17C671"/>
<path d="M376.61 151.996C374.445 151.996 371.624 149.086 369.984 147.895C367.098 145.779 364.277 143.662 361.39 141.546C358.242 139.231 355.027 137.048 351.682 134.998C340.267 128.185 326.426 122.166 312.912 122.893C312.584 122.893 312.584 123.423 312.912 123.423C327.41 122.629 342.104 129.508 354.109 137.114C357.454 139.231 360.538 141.546 363.752 143.861C366.77 146.043 369.722 148.425 372.805 150.475C373.789 151.136 375.363 152.459 376.675 152.459C376.938 152.525 376.938 151.996 376.61 151.996Z" fill="#17C671"/>
<path d="M627.201 439.387C629.825 439.387 632.515 439.387 635.139 439.387C635.795 439.387 635.795 438.395 635.139 438.395C632.515 438.395 629.825 438.395 627.201 438.395C626.545 438.395 626.545 439.387 627.201 439.387Z" fill="#6A6A9E"/>
<path d="M590.465 339.842L590.662 339.511C590.662 339.511 590.597 339.511 590.4 339.577C590.334 339.379 590.334 339.313 590.334 339.313L590.137 339.643C585.677 341.032 553.795 351.748 541.003 382.306V432.905C607.193 409.821 592.171 346.258 590.465 339.842Z" fill="#A8A8C6"/>
<path d="M570.195 397.519C570.195 397.519 565.013 398.18 560.093 388.788C569.998 392.227 570.195 397.519 570.195 397.519Z" fill="#3F3F75"/>
<path d="M570.261 405.456C570.261 405.456 565.144 406.514 559.502 397.651C569.605 400.164 570.261 405.456 570.261 405.456Z" fill="#3F3F75"/>
<path d="M565.603 414.319C565.603 414.319 560.421 413.525 558.256 403.141C566.85 409.16 565.603 414.319 565.603 414.319Z" fill="#3F3F75"/>
<path d="M558.256 422.587C558.256 422.587 553.729 419.875 555.501 409.424C561.273 418.287 558.256 422.587 558.256 422.587Z" fill="#3F3F75"/>
<path d="M568.949 408.961C568.949 408.961 570.982 404.53 581.413 404.001C574.197 411.607 568.949 408.961 568.949 408.961Z" fill="#3F3F75"/>
<path d="M563.176 417.957C563.176 417.957 566.193 413.657 576.361 416.237C567.177 421.33 563.176 417.957 563.176 417.957Z" fill="#3F3F75"/>
<path d="M556.419 428.209C556.419 428.209 557.862 423.116 568.358 422.256C561.273 430.127 556.419 428.209 556.419 428.209Z" fill="#3F3F75"/>
<path d="M561.077 436.212C562.52 434.757 564.16 432.376 565.537 428.606C562.454 430.193 560.421 431.847 559.109 433.302L561.077 436.212Z" fill="#3F3F75"/>
<path d="M565.734 438.858C565.734 437.866 565.669 436.807 565.472 435.617C564.619 436.807 563.963 437.866 563.438 438.858H565.734Z" fill="#3F3F75"/>
<path d="M563.963 437.337C559.896 435.485 555.632 432.574 557.403 427.548C558.846 423.447 562.192 420.073 564.881 416.766C569.276 411.409 576.755 401.289 568.948 395.27C567.964 394.476 566.98 396.196 567.964 396.989C572.95 400.892 569.014 407.969 566.259 411.805C563.635 415.443 560.552 418.618 557.993 422.322C556.222 424.836 554.517 427.944 555.041 431.185C555.697 435.22 559.633 437.535 562.979 439.123C564.16 439.586 565.144 437.866 563.963 437.337Z" fill="#3F3F75"/>
<path d="M583.249 423.314C583.249 423.314 588.432 423.976 593.352 414.583C583.446 418.023 583.249 423.314 583.249 423.314Z" fill="#3F3F75"/>
<path d="M583.184 431.251C583.184 431.251 588.301 432.31 593.942 423.447C583.774 426.026 583.184 431.251 583.184 431.251Z" fill="#3F3F75"/>
<path d="M590.925 438.593C592.433 437.072 594.139 434.294 595.189 429.333C589.809 433.103 588.235 436.543 587.907 438.593H590.925Z" fill="#3F3F75"/>
<path d="M584.496 434.757C584.496 434.757 582.462 430.325 572.032 429.796C579.248 437.403 584.496 434.757 584.496 434.757Z" fill="#3F3F75"/>
<path d="M587.382 437.667C585.152 434.162 581.019 426.026 585.414 422.719C586.398 421.991 585.414 420.206 584.43 420.999C578.789 425.166 582.725 434.029 585.677 438.659C586.333 439.784 588.038 438.792 587.382 437.667Z" fill="#3F3F75"/>
<path d="M527.752 457.378C527.03 455.989 526.374 454.6 525.653 453.211C525.193 452.351 523.947 453.079 524.406 453.938C525.128 455.327 525.784 456.716 526.505 458.105C526.899 458.965 528.145 458.238 527.752 457.378Z" fill="#545490"/>
<path d="M530.179 457.709C530.179 455.327 530.179 453.012 530.179 450.631C530.179 449.639 528.67 449.639 528.67 450.631C528.67 453.012 528.67 455.327 528.67 457.709C528.736 458.701 530.179 458.701 530.179 457.709Z" fill="#545490"/>
<path d="M532.737 457.907C533.065 456.716 533.459 455.526 533.787 454.401C534.049 453.475 532.672 453.079 532.344 454.005C532.016 455.195 531.622 456.386 531.294 457.51C531.032 458.436 532.475 458.833 532.737 457.907Z" fill="#545490"/>
<path d="M535.689 457.907C536.017 457.047 536.345 456.187 536.608 455.327C536.936 454.401 535.493 454.005 535.165 454.931C534.837 455.79 534.509 456.65 534.246 457.51C533.918 458.436 535.361 458.833 535.689 457.907Z" fill="#545490"/>
<path d="M611.129 438.13C610.539 436.874 609.883 435.551 609.293 434.294C608.899 433.434 607.587 434.162 608.046 435.022C608.637 436.278 609.293 437.601 609.883 438.858C610.277 439.784 611.588 438.99 611.129 438.13Z" fill="#545490"/>
<path d="M614.409 438.527C614.409 437.006 614.409 435.485 614.409 433.963C614.409 432.971 612.9 432.971 612.9 433.963C612.9 435.485 612.9 437.006 612.9 438.527C612.9 439.519 614.409 439.519 614.409 438.527Z" fill="#545490"/>
<path d="M617.23 438.726C617.689 437.469 618.083 436.146 618.542 434.889C618.87 433.963 617.427 433.567 617.099 434.492C616.64 435.749 616.246 437.072 615.787 438.329C615.459 439.255 616.902 439.652 617.23 438.726Z" fill="#545490"/>
<path d="M620.182 438.726C620.379 438.064 620.576 437.469 620.773 436.807C621.035 435.881 619.657 435.485 619.329 436.411C619.133 437.072 618.936 437.667 618.739 438.329C618.477 439.255 619.854 439.652 620.182 438.726Z" fill="#545490"/>
<path d="M542.905 342.488C544.152 335.675 552.089 335.873 557.272 334.617C561.208 333.691 564.029 331.574 565.734 327.87C567.505 324.034 567.899 319.735 569.342 315.766C571.507 309.945 576.361 305.977 582.396 304.786C582.724 304.72 582.593 304.257 582.265 304.323C577.804 305.183 573.737 307.63 571.048 311.467C568.161 315.568 567.702 320.594 566.193 325.291C565.209 328.267 563.7 331.111 560.945 332.765C558.059 334.418 554.582 334.551 551.433 335.212C547.432 336.006 543.233 337.99 542.446 342.422C542.38 342.686 542.84 342.818 542.905 342.488Z" fill="#6A6A9E"/>
<path d="M541.79 344.207C543.365 338.916 546.841 335.609 551.696 333.36C554.845 331.905 557.731 330.516 559.502 327.341C561.536 323.769 561.733 319.801 561.536 315.766C561.339 311.07 561.667 306.572 562.979 302.008C567.046 288.052 577.477 278.461 586.792 268.011C586.989 267.746 586.661 267.416 586.464 267.68C577.542 277.734 567.505 286.862 563.11 300.024C561.929 303.662 561.142 307.432 561.011 311.268C560.814 316.824 562.061 322.513 558.846 327.473C556.025 331.905 550.646 332.434 546.776 335.543C544.086 337.725 542.315 340.636 541.331 344.009C541.2 344.406 541.725 344.538 541.79 344.207Z" fill="#6A6A9E"/>
<path d="M608.702 255.708C612.442 249.292 610.277 241.091 603.979 237.321C597.682 233.55 589.547 235.733 585.808 242.083C582.2 248.3 580.232 262.984 585.939 267.217L582.922 268.871L584.955 270.127L586.989 271.384L586.923 267.879C593.418 270.855 605.094 261.926 608.702 255.708Z" fill="#6A6A9E"/>
<path d="M602.601 303.463C607.587 299.958 608.768 293.079 605.357 288.052C601.88 283.025 595.057 281.769 590.137 285.274C585.283 288.647 578.789 298.966 581.609 304.125L578.789 304.323L579.904 305.977L581.019 307.63L582.2 304.985C585.939 309.482 597.747 306.837 602.601 303.463Z" fill="#545484"/>
<path d="M470.483 372.649L468.909 435.418L468.843 438.858H457.232C457.757 436.344 462.742 435.418 462.742 435.418L454.739 378.337L470.483 372.649Z" fill="#D4D4E3"/>
<path d="M487.867 371.987L484.587 435.418L484.522 438.858H472.976C473.501 436.344 478.486 435.418 478.486 435.418L470.483 378.337L487.867 371.987Z" fill="#D4D4E3"/>
<path d="M496.395 374.765C496.395 374.765 496.395 378.999 491.213 377.94C486.752 377.08 484.522 374.369 480.586 378.602C476.65 382.835 470.614 383.033 465.366 379.462C460.184 375.89 458.413 379.792 451.787 380.189C445.162 380.586 443.062 373.641 443.062 373.641L452.837 336.601C452.837 336.601 441.947 327.539 441.226 319.338C440.963 316.361 442.21 312.062 444.112 307.564C447.458 299.627 452.706 291.425 454.477 290.499C457.298 289.11 464.514 289.177 464.514 289.177H471.074C471.074 289.177 474.682 288.78 475.797 289.177C476.912 289.64 480.914 291.293 480.914 291.293C480.914 291.293 492.722 310.012 492.59 319.073C492.262 338.585 484.784 340.768 484.784 340.768L489.966 355.849L496.395 374.765Z" fill="#6A6A9E"/>
<path d="M408.491 286.531V291.756C405.014 294.336 400.357 291.756 400.357 291.756V288.714C400.357 288.714 397.339 289.97 394.912 286.795L394.846 286.729C394.781 286.597 394.715 286.531 394.649 286.399C392.419 282.959 392.944 275.287 392.944 275.287L392.878 274.757L393.797 274.03H395.961L407.113 285.076L408.491 286.531Z" fill="#D4D4E3"/>
<path d="M417.938 434.096H413.477L403.374 372.12C403.374 372.12 392.55 386.407 392.55 388.788C392.55 391.169 396.552 434.096 396.552 434.096H392.091C392.091 434.096 385.006 413.261 381.333 398.775C380.152 394.013 379.299 389.978 379.168 387.597C378.709 377.808 392.55 344.803 392.55 344.803C392.55 344.803 403.637 349.3 417.675 344.803C417.675 344.803 420.102 344.803 420.89 366.365C420.89 366.894 420.955 367.49 420.955 368.085C421.611 389.581 417.938 434.096 417.938 434.096Z" fill="#545484"/>
<path d="M392.026 434.096C392.026 434.096 385.4 435.749 385.794 438.858H396.946L396.552 434.096H392.026Z" fill="#414176"/>
<path d="M413.411 434.096C413.411 434.096 406.982 436.08 406.982 438.858H418.266L417.872 434.096H413.411Z" fill="#414176"/>
<path d="M426.728 304.323C423.776 316.427 417.675 344.737 417.675 344.737C406.72 351.748 392.55 344.737 392.55 344.737C392.55 344.737 386.384 312.591 386.187 310.276C385.99 307.961 363.883 298.503 364.408 294.6C364.933 290.698 386.056 286.928 386.056 286.928C385.925 286.465 382.973 276.08 385.728 276.279C388.549 276.477 389.073 282.893 389.073 282.893C389.073 282.893 389.926 282.165 390.517 281.239C390.648 281.173 390.779 281.173 390.845 281.173C391.238 281.835 391.238 285.671 390.254 288.052C389.926 288.846 380.349 292.947 378.577 293.74C392.55 288.118 400.357 291.756 400.357 291.756C404.818 293.476 408.491 291.756 408.491 291.756V287.325C408.491 287.258 430.27 289.772 426.728 304.323Z" fill="#6A6A9E"/>
<path d="M463.07 266.225C463.07 266.225 458.806 266.82 458.544 272.442C458.347 276.676 458.544 285.671 465.694 285.01C472.845 284.348 474.419 282.43 473.894 274.559C473.501 268.209 471.074 264.571 463.07 266.225Z" fill="#D4D4E3"/>
<path d="M463.989 283.29V289.309C463.989 289.309 467.4 291.888 471.402 289.309V283.29H463.989Z" fill="#D4D4E3"/>
<path d="M547.235 292.682C547.235 292.682 551.04 293.013 554.976 307.961C558.649 321.719 560.486 325.092 558.912 330.78C557.337 336.469 541.921 343.48 541.921 343.48L539.888 340.239C539.888 340.239 549.859 333.823 550.646 328.267L544.217 323.108L547.235 292.682Z" fill="#8BC19E"/>
<path d="M510.106 362.86C510.368 362.331 510.762 361.537 511.221 360.677C511.09 361.074 511.024 361.405 510.893 361.603C510.63 362.198 510.368 362.595 510.106 362.86Z" fill="#D9F0E3"/>
<path d="M543.561 335.41C534.377 341.892 518.568 335.41 518.568 335.41L517.453 327.936C517.453 327.936 518.043 337.13 512.467 354.989L509.581 353.6C509.581 353.6 509.384 314.311 509.056 302.074C508.728 289.044 523.225 289.441 523.225 289.441C523.225 289.441 547.366 289.11 549.597 294.799C553.861 305.58 543.561 335.41 543.561 335.41Z" fill="#BCDDC9"/>
<path d="M527.03 435.815C526.571 435.815 522.307 436.014 520.733 438.527H532.147C532.147 437.998 532.213 436.94 532.278 435.551C532.869 423.579 534.837 384.29 534.902 381.843C534.968 378.932 518.831 378.271 518.831 378.271C518.831 378.271 527.555 435.815 527.03 435.815Z" fill="#D4D4E3"/>
<path d="M540.216 435.154C540.085 435.154 539.888 435.154 539.56 435.154C538.182 435.286 535.23 435.948 534.312 438.461H542.381L545.333 438.329C545.333 438.329 545.398 437.072 545.529 434.889C546.12 422.917 548.153 383.629 548.153 381.181C548.219 378.271 532.081 377.61 532.081 377.61C532.081 377.61 540.741 435.22 540.216 435.154Z" fill="#D4D4E3"/>
<path d="M560.355 377.147C560.355 377.147 557.994 378.469 553.795 383.761C549.597 389.118 541.79 387.663 535.69 385.216C529.589 382.769 530.114 390.243 519.224 387.002C508.269 383.761 508.99 378.8 508.99 378.8C508.99 378.8 505.842 376.684 506.498 375.228C507.088 374.038 514.763 348.176 517.584 338.784C517.584 338.718 517.65 338.651 517.65 338.651C517.65 338.585 517.715 338.453 517.715 338.387C518.24 336.535 518.568 335.477 518.568 335.477C535.558 338.85 543.562 335.477 543.562 335.477L554.976 363.786L560.355 377.147Z" fill="#6A6A9E"/>
<path d="M517.715 338.387C517.715 338.453 517.649 338.519 517.649 338.651C517.649 338.519 517.649 338.453 517.715 338.387Z" fill="#545490"/>
<path d="M560.355 377.147C560.355 377.147 557.994 378.469 553.795 383.761C549.597 389.118 541.79 387.663 535.69 385.216C529.589 382.769 530.114 390.243 519.224 387.002C508.269 383.761 508.99 378.8 508.99 378.8C508.99 378.8 505.842 376.684 506.498 375.228C507.088 374.038 514.763 348.176 517.584 338.784C516.469 342.686 508.662 370.598 510.696 372.649C511.418 373.376 516.731 356.973 517.715 363.521C518.634 369.54 515.026 375.758 521.782 379.263C528.605 382.769 528.867 367.291 533.328 369.276C539.822 372.186 534.246 381.38 544.546 381.909C554.845 382.438 550.581 373.376 548.875 366.696C547.235 360.016 551.499 361.669 555.041 370.466C555.566 371.723 555.829 368.283 554.91 363.852L560.355 377.147Z" fill="#545490"/>
<path d="M527.949 268.672C527.949 268.672 522.635 267.68 521.913 272.905C521.192 278.131 519.552 284.282 523.488 286.531C527.424 288.78 533.984 293.542 535.23 286.531C536.477 279.52 538.445 273.633 536.739 272.376C535.033 271.186 527.949 268.672 527.949 268.672Z" fill="#D4D4E3"/>
<path d="M547.235 283.29C546.382 286.531 544.283 284.414 542.053 287.457C539.822 290.499 542.643 292.418 540.216 295.526C537.723 298.635 533.525 296.783 531.294 293.145C529.064 289.507 527.555 289.64 524.013 290.566C520.405 291.492 518.961 288.383 519.421 285.406C519.945 282.43 521.126 283.091 524.013 283.29C526.833 283.488 528.473 280.313 526.637 279.387C524.8 278.528 525.39 276.742 525.653 275.088C525.915 273.435 523.225 268.408 522.569 270.855C521.848 273.567 521.585 275.22 519.88 272.839C519.027 271.649 519.158 270.326 519.88 269.135C520.601 267.879 521.979 266.688 523.488 265.96C526.505 264.439 533.59 263.844 537.461 269.4C541.331 274.89 539.494 274.757 543.233 275.154C545.201 275.353 546.513 276.742 547.104 278.461C547.563 279.983 547.629 281.769 547.235 283.29Z" fill="#6A6A9E"/>
<path d="M547.038 278.461C547.563 279.983 547.629 281.769 547.235 283.29C546.382 286.531 544.283 284.414 542.053 287.457C539.822 290.499 542.643 292.417 540.216 295.526C537.723 298.635 533.525 296.783 531.294 293.145C529.064 289.507 527.555 289.639 524.013 290.565C520.405 291.491 518.961 288.383 519.421 285.406C519.945 282.43 521.126 283.091 524.013 283.29C526.833 283.488 528.473 280.313 526.637 279.387C524.8 278.528 525.39 276.742 525.653 275.088C525.915 273.435 523.225 268.408 522.569 270.855C521.848 273.567 521.585 275.22 519.88 272.839C519.027 271.649 519.158 270.326 519.88 269.135C520.601 269.532 521.52 269.731 522.569 269.4C525.849 268.54 529.654 272.178 529.261 276.676C528.867 281.173 533.525 279.917 533.459 283.158C533.393 286.399 536.017 292.55 539.101 289.309C544.021 284.084 540.281 280.049 543.43 277.734C544.742 276.874 545.923 278.792 547.038 278.461Z" fill="#545490"/>
<path d="M530.31 261.992L528.539 260.735C528.539 260.735 519.88 259.346 520.339 266.886C520.798 274.427 526.505 278.528 535.099 278.461C543.693 278.329 544.152 271.252 541.725 267.019C539.232 262.719 530.31 261.992 530.31 261.992Z" fill="#8BC19E"/>
<path d="M534.771 259.148C529.589 257.825 525.128 259.809 525.128 265.167C525.128 270.59 533.131 274.361 538.707 271.186C544.283 268.011 541.331 260.867 534.771 259.148Z" fill="#BCDDC9"/>
<path d="M408.491 286.531V288.449C408.491 288.449 404.883 290.301 400.357 290.367V288.714C400.357 288.714 397.339 289.97 394.912 286.795C395.437 287.391 396.814 288.449 399.701 287.986C402.062 287.589 405.014 286.2 407.113 285.142L408.491 286.531Z" fill="#A8A8C6"/>
<path d="M412.952 279.586C412.821 280.578 412.493 281.57 412.033 282.496C410.131 286.332 406.392 289.375 406.392 289.375C406.392 289.375 406.392 287.126 406.129 287.391C405.867 287.655 404.293 290.169 404.096 289.177C403.899 288.184 402.521 287.325 399.373 284.084C396.224 280.776 395.765 275.419 395.699 274.757C395.634 274.096 392.813 275.948 392.813 275.948C392.813 275.948 392.616 274.956 392.813 271.516C392.944 269.135 394.584 265.431 398.389 263.91C400.094 263.249 402.193 262.984 404.752 263.381C413.214 264.836 414.329 269.664 412.952 279.586Z" fill="#BCDDC9"/>
<path d="M411.968 282.496C410.066 286.332 406.326 289.375 406.326 289.375C406.326 289.375 406.326 287.126 406.064 287.391C405.802 287.655 404.227 290.169 404.03 289.177C403.834 288.184 402.456 287.325 399.307 284.084C396.158 280.776 395.699 275.419 395.634 274.757C395.568 274.096 392.747 275.948 392.747 275.948C392.747 275.948 392.55 274.956 392.747 271.516C392.878 269.135 394.518 265.431 398.323 263.91C397.733 264.175 392.813 275.551 403.046 282.364C406.589 284.679 409.672 284.282 411.968 282.496Z" fill="#8BC19E"/>
<path d="M417.938 434.096H413.477L403.374 372.12C403.374 372.12 392.55 386.407 392.55 388.788C392.55 391.169 396.552 434.096 396.552 434.096H392.091C392.091 434.096 385.006 413.261 381.333 398.775C383.432 402.215 385.662 404.927 387.434 404.265C397.011 400.76 384.81 394.344 393.666 381.843C404.686 366.299 407.704 356.576 411.115 370.4C414.526 384.158 415.576 408.829 416.757 409.49C420.627 411.673 419.578 383.827 420.955 366.365C420.955 366.894 421.021 367.49 421.021 368.085C421.611 389.581 417.938 434.096 417.938 434.096Z" fill="#414176"/>
<path d="M497.379 330.185C492.066 332.434 492.787 326.217 485.768 333.162C478.749 340.107 468.843 335.94 470.024 325.621C471.205 315.303 469.04 317.552 463.989 313.517C458.938 309.482 457.954 302.736 463.595 299.164C469.302 295.592 470.942 289.706 467.728 287.523C464.514 285.274 464.186 281.372 464.186 277.602C464.186 273.898 462.48 276.08 460.184 272.575C457.888 269.069 460.118 264.042 464.579 263.249C466.547 262.852 468.318 262.719 469.762 262.719C479.142 262.786 479.536 269.664 482.291 276.345C485.506 284.084 491.869 282.893 489.573 294.137C487.277 305.382 500.528 301.413 503.611 307.63C503.742 307.829 503.808 308.027 503.874 308.226C508.99 319.272 502.562 327.936 497.379 330.185Z" fill="#545484"/>
<path d="M497.379 330.185C492.066 332.434 492.787 326.217 485.768 333.162C478.749 340.107 468.843 335.94 470.024 325.621C471.205 315.303 469.04 317.552 463.989 313.517C458.938 309.482 457.954 302.736 463.595 299.164C469.302 295.592 470.942 289.706 467.728 287.523C464.514 285.274 464.186 281.372 464.186 277.602C464.186 273.898 462.48 276.08 460.184 272.575C457.888 269.069 460.118 264.042 464.579 263.249C466.547 262.852 468.318 262.719 469.762 262.719C468.056 262.786 458.61 267.482 463.989 271.12C469.368 274.757 478.224 280.446 475.928 289.11C473.632 297.709 467.4 309.615 479.733 316.163C489.245 321.19 501.578 315.634 503.874 308.226C508.99 319.272 502.562 327.936 497.379 330.185Z" fill="#414176"/>
<path d="M381.136 439.387C394.322 439.387 407.442 439.387 420.627 439.387C441.619 439.387 462.677 439.387 483.669 439.387C488.523 439.387 493.443 439.387 498.298 439.387C498.954 439.387 498.954 438.395 498.298 438.395C485.112 438.395 471.992 438.395 458.806 438.395C437.814 438.395 416.757 438.395 395.765 438.395C390.91 438.395 385.99 438.395 381.136 438.395C380.48 438.395 380.48 439.387 381.136 439.387Z" fill="#6A6A9E"/>
<path d="M505.382 439.387C518.699 439.387 532.081 439.387 545.398 439.387C566.784 439.387 588.169 439.387 609.555 439.387C614.475 439.387 619.329 439.387 624.249 439.387C624.905 439.387 624.905 438.395 624.249 438.395C610.933 438.395 597.55 438.395 584.233 438.395C562.848 438.395 541.462 438.395 520.077 438.395C515.157 438.395 510.302 438.395 505.382 438.395C504.792 438.395 504.726 439.387 505.382 439.387Z" fill="#6A6A9E"/>
<path d="M462.742 435.418H468.909L468.843 438.858H457.232C457.757 436.344 462.742 435.418 462.742 435.418Z" fill="#545484"/>
<path d="M484.587 435.418L484.522 438.858H472.976C473.501 436.344 478.486 435.418 478.486 435.418H484.587Z" fill="#545484"/>
<path d="M532.147 438.527C532.147 437.998 532.213 436.94 532.278 435.551L527.03 435.815C526.571 435.815 522.307 436.014 520.733 438.527H532.147Z" fill="#6A6A9E"/>
<path d="M542.381 438.527L545.333 438.395C545.333 438.395 545.398 437.138 545.529 434.955L539.56 435.22C538.182 435.352 535.23 436.014 534.312 438.527H542.381Z" fill="#6A6A9E"/>
<path d="M198.834 388.06C218.842 388.06 238.85 388.06 258.858 388.06C290.739 388.06 322.686 388.06 354.568 388.06C361.915 388.06 369.197 388.06 376.544 388.06C377.2 388.06 377.2 387.068 376.544 387.068C356.536 387.068 336.528 387.068 316.52 387.068C284.638 387.068 252.691 387.068 220.81 387.068C213.462 387.068 206.181 387.068 198.834 387.068C198.243 387.068 198.243 388.06 198.834 388.06Z" fill="#6A6A9E"/>
<path d="M390.254 287.986L385.99 286.928C385.859 286.465 382.907 276.08 385.662 276.279C388.483 276.477 389.008 282.893 389.008 282.893C389.008 282.893 389.861 282.165 390.451 281.239C390.582 281.041 390.714 281.041 390.779 281.173C391.304 281.835 391.304 285.605 390.254 287.986Z" fill="#D4D4E3"/>
<path d="M496.395 374.765C496.395 374.765 496.395 378.999 491.213 377.94C486.752 377.08 484.522 374.369 480.586 378.602C476.65 382.835 470.614 383.033 465.366 379.462C460.184 375.89 458.413 379.792 451.787 380.189C445.162 380.586 443.062 373.641 443.062 373.641L452.837 336.601C452.837 336.601 441.947 327.539 441.226 319.338C440.963 316.361 442.21 312.062 444.112 307.564C444.768 314.443 446.933 323.769 451.918 329.061C465.694 343.744 470.549 341.099 466.482 343.546C462.414 345.993 449.819 352.277 455.526 363.852C461.234 375.361 462.48 361.074 475.206 363.455C487.933 365.902 489.901 363.587 490.032 355.849L496.395 374.765Z" fill="#545490"/>
<path d="M463.726 288.978C463.726 288.647 456.576 289.507 455.526 289.838C453.034 290.698 451.59 293.079 450.213 295.196C446.211 301.479 441.226 310.012 440.963 317.684C440.766 324.629 446.605 331.442 451.459 335.741C455.789 339.577 461.365 341.628 466.81 343.281C466.875 343.281 467.072 343.281 467.072 343.149C467.597 341.959 468.122 340.834 468.646 339.644C468.712 339.511 468.646 339.379 468.581 339.313C464.776 336.535 461.102 333.426 458.019 329.921C456.314 328.002 453.23 324.695 453.296 321.851C453.362 320.065 454.608 317.75 455.198 316.031C455.33 315.7 454.805 315.568 454.739 315.898C454.149 317.684 452.837 319.999 452.771 321.917C452.706 324.629 455.264 327.539 456.904 329.458C459.331 332.302 462.152 334.815 465.038 337.196C465.826 337.858 466.744 338.453 467.531 339.114C468.45 339.974 468.318 339.247 467.859 340.305C467.662 340.768 467.269 342.223 466.941 342.422C466.285 342.818 465.104 342.157 464.186 341.826C461.627 340.966 459.134 339.974 456.773 338.651C454.805 337.593 452.968 336.336 451.328 334.749C448.048 331.64 444.899 327.804 442.866 323.703C439.914 317.816 442.669 311.202 445.162 305.646C447.064 301.413 449.294 297.048 452.05 293.344C453.952 290.83 455.854 289.904 458.938 289.573C460.578 289.375 462.283 289.309 463.923 289.243C464.054 289.243 464.186 289.11 464.186 288.978C464.186 288.912 464.186 288.846 464.186 288.78C464.251 288.647 463.726 288.647 463.726 288.978Z" fill="#545484"/>
<path d="M468.843 339.511C468.843 339.511 473.107 338.255 474.55 340.173C476.059 342.091 475.272 346.192 473.829 345.663C472.32 345.133 473.829 342.885 470.877 343.083C467.925 343.281 467.334 343.083 467.334 343.083L468.843 339.511Z" fill="#D4D4E3"/>
<path d="M479.208 340.04C479.208 340.04 473.96 338.387 472.779 342.422C471.598 346.456 473.107 345.596 475.994 344.141C478.88 342.686 480.061 343.083 480.061 343.083L479.208 340.04Z" fill="#A8A8C6"/>
<path d="M452.64 336.469C450.606 344.141 448.638 351.748 446.605 359.42C445.555 363.521 444.44 367.622 443.39 371.723C442.734 374.302 443.522 375.89 445.555 377.94C447.72 380.057 450.672 380.652 453.558 380.189C455.264 379.925 456.838 379.197 458.478 378.668C461.562 377.742 463.202 378.469 465.826 379.991C468.778 381.644 472.32 382.636 475.666 381.777C479.667 380.718 482.029 375.89 486.293 376.816C488.72 377.345 497.248 380.52 496.723 374.765C496.526 372.45 495.018 369.739 494.296 367.49C491.278 358.56 488.195 349.631 485.178 340.702C485.046 340.371 484.587 340.503 484.718 340.834C486.949 347.448 489.245 354.063 491.475 360.677C492.787 364.646 494.165 368.548 495.477 372.517C495.739 373.178 496.198 374.104 496.264 374.832C496.658 379.66 489.966 377.345 487.408 376.617C485.309 376.022 483.406 375.824 481.635 377.279C479.995 378.602 478.946 380.057 476.978 380.917C473.829 382.173 470.418 381.843 467.334 380.388C465.17 379.395 463.53 377.61 460.971 377.808C456.97 378.073 453.755 380.784 449.622 379.792C447.326 379.263 443.587 376.353 443.456 373.707C443.39 372.98 443.915 371.921 444.112 371.194C445.096 367.49 446.08 363.72 447.064 360.016C449.098 352.277 451.131 344.538 453.165 336.733C453.165 336.27 452.706 336.138 452.64 336.469Z" fill="#545484"/>
<path d="M512.401 354.923C512.073 356.444 511.811 357.634 511.614 358.296C511.352 358.825 511.089 359.288 510.958 359.619C510.368 360.214 509.712 359.949 508.728 359.553C507.481 359.09 508.203 356.047 509.449 354.129C509.515 353.997 509.581 353.864 509.646 353.666L512.401 354.923Z" fill="#D4D4E3"/>
<path d="M519.814 289.573C514.304 290.962 510.237 293.674 509.384 299.627C508.859 303.463 508.99 307.3 509.056 311.136C509.187 321.057 509.253 330.979 509.318 340.9C509.384 345.001 509.384 349.168 509.384 353.269C509.384 353.6 509.909 353.6 509.909 353.269C509.843 337.858 509.581 322.513 509.449 307.101C509.449 303.596 509.253 299.23 510.761 295.989C512.27 292.616 516.6 290.896 519.945 290.036C520.273 289.97 520.142 289.441 519.814 289.573Z" fill="#C4E8D4"/>
<path d="M515.288 345.927C516.534 340.636 517.059 335.212 517.584 329.788C517.649 329.325 517.846 328.532 517.715 328.069C517.518 327.341 517.453 329.391 517.453 329.59C517.715 331.31 517.977 333.029 518.24 334.749C518.305 335.08 518.765 334.947 518.699 334.617C518.371 332.368 518.043 330.119 517.715 327.87C517.649 327.606 517.256 327.672 517.256 327.936C516.797 333.889 516.206 339.908 514.829 345.729C514.697 346.059 515.222 346.192 515.288 345.927Z" fill="#C4E8D4"/>
<path d="M518.305 335.344C514.566 347.647 510.893 359.949 507.153 372.252C506.891 373.244 506.038 374.765 506.104 375.824C506.235 377.345 508.006 377.742 508.662 378.866C509.121 379.726 509.121 380.851 509.712 381.777C512.467 385.877 518.962 387.796 523.619 388.06C527.949 388.259 531.294 384.158 535.493 385.481C540.478 387.068 546.12 389.185 551.106 386.34C554.91 384.224 556.747 379.726 560.421 377.411C560.486 377.345 560.552 377.213 560.552 377.147C554.976 363.257 549.334 349.3 543.758 335.41C543.627 335.146 543.168 335.278 543.299 335.543C546.579 343.744 549.925 351.946 553.205 360.148C554.386 363.124 555.632 366.167 556.813 369.143C557.731 371.392 559.174 373.906 559.699 376.287C559.896 377.345 560.027 376.684 559.634 377.411C559.174 378.139 558.059 378.734 557.469 379.329C555.107 381.71 553.336 384.885 550.122 386.274C546.251 387.994 541.397 387.068 537.526 385.679C534.771 384.687 533 384.092 530.376 385.481C526.506 387.597 523.488 387.928 519.224 386.737C516.403 385.944 513.32 384.687 511.155 382.57C509.974 381.38 510.04 380.123 509.318 378.866C508.597 377.61 506.825 377.014 506.891 375.361C506.957 374.104 507.744 372.583 508.072 371.392C508.728 369.143 509.449 366.828 510.105 364.579C513.057 354.856 515.944 345.2 518.896 335.477C518.896 335.212 518.437 335.08 518.305 335.344Z" fill="#545484"/>
<path d="M541.462 291.095C543.955 291.558 546.776 292.285 548.744 294.071C550.909 296.122 552.024 299.495 553.008 302.273C554.976 307.829 556.419 313.583 557.928 319.272C559.24 324.298 560.486 329.458 556.55 333.691C553.598 336.799 550.121 338.784 546.513 340.9C546.251 341.033 546.513 341.496 546.776 341.363C550.843 338.916 555.041 336.667 558.059 332.765C561.011 328.928 559.699 323.902 558.584 319.602C556.944 313.186 555.369 306.638 552.942 300.487C550.646 294.468 548.022 291.822 541.659 290.632C541.331 290.566 541.134 291.029 541.462 291.095Z" fill="#8BC19E"/>
<path d="M518.962 312.393C518.371 317.618 517.781 322.777 517.19 328.002C517.125 328.333 517.65 328.333 517.715 328.002C518.306 322.777 518.896 317.618 519.487 312.393C519.487 312.062 519.027 312.062 518.962 312.393Z" fill="#C4E8D4"/>
<path d="M519.617 311.401C519.749 310.541 519.814 309.681 519.945 308.755C520.011 308.424 519.486 308.424 519.421 308.755C519.29 309.615 519.224 310.475 519.093 311.401C519.093 311.731 519.617 311.731 519.617 311.401Z" fill="#C4E8D4"/>
<path d="M416.822 125.605C416.494 127.325 415.838 128.582 415.182 129.508C413.149 127.854 411.312 123.026 412.427 120.578C413.346 118.594 414.592 118.793 415.576 119.388C416.363 120.843 417.282 123.092 416.822 125.605Z" fill="#D9F0E3"/>
<path d="M397.077 148.888C395.962 150.012 394.584 150.938 393.075 151.732C393.469 151.467 396.552 149.086 400.816 141.546C405.277 133.476 402.981 128.912 402.981 128.912C402.981 128.912 402.981 128.912 405.08 130.169C407.048 131.426 406.326 139.76 397.077 148.888Z" fill="#D9F0E3"/>
<path d="M374.051 151.401C374.051 151.401 376.15 151.666 377.462 153.518C378.709 155.303 378.905 156.891 380.349 155.7C381.726 154.51 380.742 149.615 377.265 149.351C373.789 149.152 374.051 151.401 374.051 151.401Z" fill="#17C671"/>
<path d="M376.675 152.658C376.675 152.658 379.168 152.922 379.955 154.973C380.742 157.023 381.398 158.346 382.842 157.155C384.219 155.965 383.235 151.07 379.758 150.806C376.282 150.607 376.675 152.658 376.675 152.658Z" fill="#17C671"/>
<path d="M380.086 152.658C380.086 152.658 382.579 152.922 383.366 154.973C384.154 157.023 384.81 158.346 386.253 157.155C387.63 155.965 386.646 151.07 383.169 150.806C379.693 150.607 380.086 152.658 380.086 152.658Z" fill="#17C671"/>
<path d="M387.105 154.377C387.105 154.377 389.598 154.642 390.385 156.692C391.173 158.743 391.829 160.066 393.272 158.875C394.649 157.685 393.665 152.79 390.189 152.525C386.712 152.327 387.105 154.377 387.105 154.377Z" fill="#17C671"/>
<path d="M389.402 153.584C389.402 153.584 391.894 153.848 392.681 155.899C393.469 157.949 394.125 159.272 395.568 158.081C396.945 156.891 395.961 151.996 392.485 151.732C389.008 151.599 389.402 153.584 389.402 153.584Z" fill="#17C671"/>
<path d="M369.918 148.358C372.608 147.962 375.363 148.425 377.987 147.763C380.939 147.036 383.891 145.448 386.253 143.53C388.221 141.876 389.992 139.495 390.845 137.048C391.829 134.402 391.632 131.558 393.01 128.979C393.141 128.714 392.747 128.449 392.616 128.714C391.829 130.235 391.304 131.823 390.976 133.476C390.32 137.379 389.074 140.421 385.925 143.067C383.235 145.316 379.627 147.234 376.085 147.499C373.986 147.697 371.886 147.499 369.787 147.763C369.459 147.895 369.59 148.358 369.918 148.358Z" fill="#17C671"/>
<path d="M407.901 125.671C406.523 125.804 405.146 125.936 403.768 126.068C403.637 126.068 403.571 126.134 403.505 126.267C403.243 127.06 402.653 128.119 402.587 128.979C402.522 129.905 403.177 131.294 403.177 132.22C403.243 134.27 402.718 136.122 401.997 137.974C399.897 143.265 396.683 147.499 392.813 151.599C392.616 151.864 392.944 152.195 393.141 151.93C397.601 147.168 402.259 141.48 403.505 134.865C403.965 132.484 402.85 130.103 403.44 127.92C403.965 125.804 405.801 126.333 407.901 126.201C408.229 126.201 408.229 125.671 407.901 125.671Z" fill="#17C671"/>
<path d="M257.808 432.045C258.267 434.095 258.726 436.212 259.186 438.262C259.382 439.188 260.826 438.792 260.629 437.866C260.17 435.815 259.71 433.699 259.251 431.648C258.989 430.722 257.546 431.119 257.808 432.045Z" fill="#545490"/>
<path d="M263.253 438.064C263.253 435.617 263.253 433.103 263.253 430.656C263.253 429.664 261.744 429.664 261.744 430.656C261.744 433.103 261.744 435.617 261.744 438.064C261.81 438.99 263.253 438.99 263.253 438.064Z" fill="#545490"/>
<path d="M266.467 438.263C266.795 437.006 267.058 435.815 267.386 434.559C267.582 433.633 266.205 433.236 265.942 434.162C265.614 435.418 265.352 436.609 265.024 437.866C264.827 438.792 266.27 439.189 266.467 438.263Z" fill="#545490"/>
<path d="M269.813 438.461C270.272 437.403 270.797 436.411 271.256 435.352C271.65 434.492 270.403 433.699 270.01 434.625C269.55 435.683 269.026 436.675 268.566 437.733C268.173 438.527 269.419 439.321 269.813 438.461Z" fill="#545490"/>
<path d="M102.795 438.858H145.501C147.6 427.349 149.109 413.062 148.977 395.667C148.715 334.286 105.288 289.375 105.288 289.375V289.574L105.222 289.375C105.222 289.375 74.9807 344.274 90.6591 403.538C94.3983 417.56 98.5311 429.201 102.795 438.858Z" fill="#BBBBD3"/>
<path d="M104.238 289.64C110.733 338.255 116.965 386.87 123.525 435.485C123.721 436.741 125.624 436.212 125.427 434.955C118.867 386.34 112.635 337.725 106.141 289.11C106.009 287.854 104.107 288.383 104.238 289.64Z" fill="#EAEAF2"/>
<path d="M121.753 305.845C117.555 312.062 113.291 318.279 109.093 324.497C108.371 325.555 110.077 326.547 110.798 325.489C114.997 319.272 119.261 313.054 123.459 306.837C124.181 305.778 122.409 304.786 121.753 305.845Z" fill="#EAEAF2"/>
<path d="M124.902 313.517C120.048 320.462 115.259 327.407 110.405 334.352C109.683 335.41 111.389 336.403 112.11 335.344C116.965 328.399 121.753 321.454 126.608 314.509C127.33 313.517 125.624 312.525 124.902 313.517Z" fill="#EAEAF2"/>
<path d="M87.6414 343.877C96.4318 349.367 105.222 354.923 114.013 360.412C115.128 361.074 116.112 359.354 114.997 358.693C106.206 353.203 97.4158 347.647 88.6254 342.157C87.5102 341.496 86.5262 343.215 87.6414 343.877Z" fill="#EAEAF2"/>
<path d="M143.992 358.693C135.136 367.622 126.214 376.551 117.358 385.481C116.44 386.407 117.883 387.796 118.736 386.87C127.592 377.94 136.514 369.011 145.37 360.082C146.288 359.222 144.845 357.767 143.992 358.693Z" fill="#EAEAF2"/>
<path d="M86.4607 404.662C98.2687 409.358 110.142 414.054 121.95 418.684C123.131 419.147 123.656 417.229 122.475 416.766C110.667 412.07 98.7935 407.374 86.9855 402.744C85.8047 402.281 85.2799 404.199 86.4607 404.662Z" fill="#EAEAF2"/>
<path d="M77.2766 438.858H128.182C127.723 438.13 127.198 437.403 126.673 436.609C117.424 424.174 116.833 428.209 108.043 420.669C99.2526 413.128 103.254 403.405 93.939 393.881C84.6238 384.356 81.7374 389.383 75.571 382.703C69.339 375.956 66.8462 369.342 57.3998 372.517C47.9534 375.691 52.611 389.052 56.9406 395.137C61.2702 401.223 62.451 407.837 64.9438 420.206C66.2558 427.018 71.3726 433.699 77.2766 438.858Z" fill="#DBDBE8"/>
<path d="M55.7598 373.972C64.6158 385.679 72.7502 397.982 79.6382 411.012C82.5902 416.502 84.9518 422.058 89.0846 426.754C93.0862 431.318 97.6126 435.352 102.008 439.519C102.926 440.379 104.304 438.99 103.385 438.13C99.2526 434.162 94.923 430.325 91.1182 426.092C86.5262 420.999 83.9678 414.98 80.7534 408.961C73.931 396.328 66.059 384.422 57.3998 372.98C56.7438 371.987 55.0382 372.98 55.7598 373.972Z" fill="white"/>
<path d="M169.707 463H171.216C170.691 460.354 170.101 457.775 169.576 455.129C169.379 454.203 167.936 454.6 168.133 455.526C168.657 458.039 169.182 460.487 169.707 463Z" fill="#545490"/>
<path d="M175.152 463V457.378C175.152 456.386 173.643 456.386 173.643 457.378V463H175.152Z" fill="#545490"/>
<path d="M179.482 463C179.875 461.743 180.269 460.42 180.662 459.164C180.925 458.238 179.547 457.841 179.219 458.767C178.76 460.156 178.301 461.611 177.907 463H179.482Z" fill="#545490"/>
<path d="M232.683 428.804C232.027 431.913 231.371 435.021 230.715 438.196C230.518 439.122 231.961 439.519 232.158 438.593C232.814 435.484 233.47 432.376 234.126 429.201C234.323 428.275 232.88 427.878 232.683 428.804Z" fill="#545490"/>
<path d="M228.55 438.395C228.55 435.948 228.55 433.5 228.55 431.053C228.55 430.061 227.041 430.061 227.041 431.053C227.041 433.5 227.041 435.948 227.041 438.395C227.107 439.321 228.55 439.321 228.55 438.395Z" fill="#545490"/>
<path d="M224.745 438.196C224.155 436.278 223.565 434.36 222.909 432.442C222.646 431.516 221.203 431.913 221.465 432.839C222.056 434.757 222.646 436.675 223.302 438.593C223.63 439.519 225.073 439.122 224.745 438.196Z" fill="#545490"/>
<path d="M50.7088 450.036C51.2336 452.549 51.824 455.063 52.3488 457.576C52.5456 458.502 53.9888 458.106 53.792 457.179C53.2672 454.666 52.6768 452.153 52.152 449.639C51.9552 448.647 50.512 449.044 50.7088 450.036Z" fill="#545490"/>
<path d="M57.0718 457.378C57.0718 454.335 57.0718 451.359 57.0718 448.316C57.0718 447.324 55.563 447.324 55.563 448.316C55.563 451.359 55.563 454.335 55.563 457.378C55.6286 458.304 57.0718 458.304 57.0718 457.378Z" fill="#545490"/>
<path d="M61.0079 457.576C61.4015 456.055 61.7295 454.534 62.1231 453.078C62.3199 452.152 60.9423 451.756 60.6799 452.682C60.2863 454.203 59.9583 455.724 59.5647 457.179C59.3679 458.105 60.7455 458.502 61.0079 457.576Z" fill="#545490"/>
<path d="M65.0751 457.775C65.6655 456.518 66.2559 455.261 66.8463 454.005C67.2399 453.145 65.9935 452.351 65.5999 453.277C65.0095 454.534 64.4191 455.79 63.8287 457.047C63.4351 457.841 64.6815 458.634 65.0751 457.775Z" fill="#545490"/>
<path d="M165.509 277.469C165.509 277.469 166.427 281.173 167.017 286.928C167.608 292.682 166.099 295.129 164.525 295.129C160.326 295.196 158.949 295.129 157.833 289.904C156.653 284.679 165.509 277.469 165.509 277.469Z" fill="#D4D4E3"/>
<path d="M190.568 438.858H178.432C178.432 438.858 178.038 436.94 177.382 433.699C174.037 417.56 163.737 369.408 159.736 369.408C155.078 369.408 141.499 430.921 140.909 433.699C140.909 433.765 140.909 433.831 140.909 433.831C140.909 433.831 140.909 433.831 143.861 435.683C146.813 437.535 146.288 438.924 146.288 438.924H135.136C135.201 437.204 135.267 435.484 135.333 433.765C137.76 378.536 144.32 341.231 144.32 341.231C144.32 341.231 159.473 346.919 175.808 341.496C175.808 341.496 181.384 433.5 184.27 433.699C190.371 434.095 190.568 438.858 190.568 438.858Z" fill="#6A6A9E"/>
<path d="M198.702 246.911C198.112 248.631 179.678 302.67 178.891 306.837C178.104 311.07 175.874 342.554 175.874 342.554C175.874 342.554 159.211 347.515 144.123 342.025L140.712 308.226L134.217 288.581L119.982 245.522C119.982 245.522 115.259 242.083 116.374 240.032C117.424 237.982 122.147 242.744 122.147 242.744C122.147 242.744 122.934 239.569 123.787 240.694C124.64 241.818 123.721 244.662 123.656 244.861C123.656 244.861 146.025 290.367 150.093 293.211C154.16 296.122 155.209 297.246 155.209 297.246L163.541 296.585L194.504 245.39C194.504 245.39 193.126 242.083 194.504 241.818C195.882 241.62 196.275 243.141 196.275 243.141C196.275 243.141 201.13 237.585 202.179 239.371C203.294 241.421 201.917 243.736 198.702 246.911Z" fill="#6A6A9E"/>
<path d="M175.808 307.035C176.661 294.336 197.915 248.433 198.637 246.911C198.046 248.565 179.678 302.67 178.891 306.771C178.104 311.004 175.874 342.488 175.874 342.488C175.874 342.488 159.211 347.448 144.123 341.959L140.712 308.16L134.218 288.515C134.48 288.912 142.221 302.405 143.861 314.443C145.501 326.68 151.011 336.204 157.637 337.064C169.182 338.784 174.955 319.933 175.808 307.035Z" fill="#545490"/>
<path d="M154.16 290.367L154.357 296.585C154.357 296.585 155.013 299.363 158.424 299.561C160.917 299.693 162.097 298.635 163.606 296.783L162.688 290.036L154.16 290.367Z" fill="#D4D4E3"/>
<path d="M166.361 281.835C166.165 282.43 165.968 283.025 165.705 283.554C164 287.391 164.984 287.721 164.853 289.772C164.721 291.822 161.704 296.188 159.473 294.865C157.243 293.608 156.456 294.6 150.683 293.873C144.91 293.145 146.288 287.721 146.616 285.803C146.944 283.951 143.729 283.422 143.926 279.387C144.123 275.419 146.419 277.469 146.944 273.633C147.206 271.715 148.715 270.392 150.749 269.731C152.717 269.135 155.144 269.135 157.374 269.929C160.785 271.12 163.541 271.913 165.509 273.567C167.083 275.022 167.345 278.461 166.361 281.835Z" fill="#BCDDC9"/>
<path d="M165.705 283.554C164 287.391 164.984 287.721 164.853 289.772C164.721 291.822 161.704 296.188 159.473 294.865C157.243 293.608 156.456 294.6 150.683 293.873C144.91 293.145 146.288 287.721 146.616 285.803C146.944 283.951 143.729 283.422 143.926 279.387C144.123 275.419 146.419 277.469 146.944 273.633C147.206 271.715 148.715 270.392 150.749 269.731C149.83 271.053 147.206 275.022 148.846 276.808C150.814 279.057 151.733 281.636 151.798 285.539C151.929 289.441 159.801 289.177 159.933 285.539C160.064 281.901 162.425 283.951 166.361 281.769C166.165 282.43 165.902 283.025 165.705 283.554Z" fill="#8BC19E"/>
<path d="M247.968 439.321C255.315 439.321 262.597 439.321 269.944 439.321C270.6 439.321 270.6 438.329 269.944 438.329C262.597 438.329 255.315 438.329 247.968 438.329C247.312 438.329 247.312 439.321 247.968 439.321Z" fill="#6A6A9E"/>
<path d="M81.8687 438.593C80.4911 438.593 78.4575 439.056 77.1455 438.593C76.1615 438.262 74.8495 436.344 74.0623 435.418C70.0607 430.722 66.3871 425.894 64.8783 419.742C63.3039 413.393 62.7791 406.911 60.0895 400.892C57.6623 395.6 54.1199 391.037 52.7423 385.282C51.7583 381.314 51.4959 376.088 55.3663 373.575C58.3839 371.591 63.1071 371.26 66.1903 373.244C71.2415 376.551 73.7343 382.967 78.9167 385.944C81.8031 387.597 85.2799 387.597 88.1663 389.317C91.7087 391.367 94.4639 394.674 96.6943 398.114C100.237 403.604 100.368 410.218 103.517 415.774C106.731 421.462 113.094 424.439 118.277 427.746C122.278 430.325 125.361 434.955 127.92 438.924C128.117 439.188 128.51 438.924 128.313 438.659C125.886 434.889 123.065 430.921 119.589 428.077C117.424 426.291 114.669 425.365 112.438 423.711C109.224 421.396 105.353 418.354 103.517 414.716C101.942 411.475 101.352 407.903 100.302 404.464C99.2527 401.09 97.3503 397.982 95.2511 395.204C93.3487 392.69 91.0527 390.507 88.3631 388.854C84.7551 386.737 80.2943 386.87 77.1455 384.025C72.9471 380.255 69.2735 372.384 63.2383 371.458C58.5807 370.731 53.0703 372.913 51.8895 377.874C50.5775 383.496 53.2671 389.648 56.0223 394.41C57.7935 397.452 59.5647 400.561 60.7455 403.934C62.2543 407.969 62.8447 412.268 63.6319 416.502C65.0095 423.711 68.0271 429.003 72.6191 434.559C73.5375 435.683 75.1775 438.527 76.6207 439.056C77.9327 439.585 80.3599 439.056 81.8031 439.056C82.1967 439.122 82.1967 438.593 81.8687 438.593Z" fill="#6A6A9E"/>
<path d="M87.5103 439.387C105.091 439.387 122.672 439.387 140.318 439.387C168.33 439.387 196.341 439.387 224.352 439.387C230.781 439.387 237.144 439.387 243.573 439.387C244.229 439.387 244.229 438.395 243.573 438.395C225.992 438.395 208.411 438.395 190.765 438.395C162.754 438.395 134.742 438.395 106.731 438.395C100.302 438.395 93.9391 438.395 87.5103 438.395C86.8543 438.395 86.8543 439.387 87.5103 439.387Z" fill="#6A6A9E"/>
<path d="M146.353 438.858H135.201C135.267 437.138 135.333 435.418 135.398 433.699H140.909C140.909 433.765 140.909 433.831 140.909 433.831C140.909 433.831 140.909 433.831 143.861 435.683C146.878 437.535 146.353 438.858 146.353 438.858Z" fill="#545490"/>
<path d="M190.568 438.858H178.432C178.432 438.858 178.038 436.94 177.382 433.699H184.205C190.371 434.096 190.568 438.858 190.568 438.858Z" fill="#545490"/>
<path d="M123.656 245.059L119.982 245.655C119.982 245.655 115.259 242.215 116.374 240.165C117.424 238.114 122.147 242.877 122.147 242.877C122.147 242.877 122.934 239.702 123.787 240.826C124.705 241.951 123.721 244.861 123.656 245.059Z" fill="#D4D4E3"/>
<path d="M198.702 246.911L194.635 245.655C194.635 245.655 193.257 242.347 194.635 242.083C196.013 241.884 196.406 243.406 196.406 243.406C196.406 243.406 201.261 237.85 202.31 239.636C203.294 241.421 201.917 243.736 198.702 246.911Z" fill="#D4D4E3"/>
<path d="M87.8383 388.92C84.7551 375.228 86.2639 360.016 88.1007 346.324C90.1999 330.317 94.2671 314.509 100.63 299.693C102.008 296.518 103.451 293.41 105.091 290.367C105.55 289.441 105.091 289.838 105.288 289.97C105.944 290.367 106.6 291.425 107.125 292.021C114.078 299.892 120.245 308.49 125.755 317.486C130.282 324.894 134.218 332.632 137.366 340.702C139.138 345.2 140.187 350.16 142.418 354.46C142.549 354.724 143.008 354.526 142.811 354.195C139.99 348.639 138.613 342.223 136.186 336.469C132.578 328.069 128.117 320.065 123.131 312.393C117.883 304.323 112.045 296.386 105.419 289.375C105.288 289.243 105.091 289.309 105.026 289.441C97.8095 301.942 93.3487 316.626 90.3311 330.714C88.0351 341.496 86.5919 352.541 86.0671 363.587C85.6735 371.987 85.5423 380.784 87.3791 389.052C87.4447 389.383 87.9039 389.251 87.8383 388.92Z" fill="#6A6A9E"/>
<path d="M242.982 87.9038C239.112 80.0328 241.277 75.6674 243.048 73.617C243.245 73.6831 243.441 73.8154 243.638 73.9477C246.721 75.932 245.869 86.9778 242.982 87.9038Z" fill="#E8F6EE"/>
<path d="M254.856 104.638C256.496 112.707 258.136 120.711 259.776 128.78C259.841 129.111 260.301 128.979 260.235 128.648C258.595 120.578 256.955 112.575 255.315 104.506C255.25 104.175 254.79 104.307 254.856 104.638Z" fill="#D9F0E3"/>
<path d="M276.242 90.8803C279.259 96.8332 278.472 104.836 277.291 111.12C276.635 114.89 275.848 118.66 274.667 122.298C274.339 123.224 274.011 124.481 273.486 125.142C273.29 125.407 273.618 125.738 273.814 125.473C274.339 124.812 274.667 123.819 274.93 123.026C276.438 118.859 277.226 114.361 278.013 109.996C278.997 103.91 279.521 96.304 276.701 90.6157C276.504 90.3512 276.11 90.6157 276.242 90.8803Z" fill="#D9F0E3"/>
<path d="M417.656 157.644C417.656 157.644 424.801 157.17 427.731 160.243C430.685 163.254 431.949 169.713 429.54 168.143C427.131 166.574 425.835 163.32 423.922 163.314C422.01 163.309 425.764 164.363 424.6 166.17C423.437 167.977 415.871 161.84 415.871 161.84L417.595 157.619L417.656 157.644Z" fill="#D4D4E3"/>
<g style="mix-blend-mode:luminosity" opacity="0.4">
<path d="M150.352 99.7079C160.306 101.371 169.723 94.6498 171.386 84.6957C173.049 74.7417 166.328 65.3241 156.374 63.6611C146.42 61.998 137.002 68.7192 135.339 78.6733C133.676 88.6273 140.398 98.0448 150.352 99.7079Z" fill="#F7931A"/>
<path d="M161.834 80.8071C162.582 78.5051 160.995 76.9351 158.679 75.6773L160.011 72.6114L158.145 71.8018L156.848 74.7866C156.358 74.5727 155.853 74.3656 155.349 74.1587L156.655 71.1546L154.79 70.3439L153.458 73.4086C153.051 73.241 152.65 73.0767 152.263 72.908L152.267 72.8982L149.694 71.7793L148.828 73.7722C148.828 73.7722 150.218 74.3448 150.184 74.36C150.94 74.6889 150.995 75.2342 150.902 75.6447L149.385 79.1372C149.437 79.1597 149.503 79.1917 149.577 79.2352L149.38 79.1501L147.254 84.0426C147.117 84.2652 146.812 84.5837 146.283 84.3552C146.299 84.3867 144.927 83.7662 144.927 83.7662L143.589 85.8329L146.017 86.8883C146.469 87.0852 146.91 87.2863 147.344 87.4782L145.998 90.5788L147.863 91.3882L149.195 88.3223C149.703 88.5542 150.196 88.7733 150.68 88.9838L149.352 92.0366L151.218 92.8462L152.563 89.7523C155.779 90.9357 158.317 91.0993 159.87 88.2717C161.121 85.9958 160.465 84.4517 158.87 83.2507C160.192 83.1705 161.289 82.4935 161.834 80.8071ZM156.342 86.3021C155.338 88.6203 151.484 86.6321 150.218 86.0837L152.005 81.9763C153.27 82.5269 157.393 83.8862 156.342 86.3021ZM157.993 80.1295C157.077 82.2378 153.875 80.5531 152.823 80.0959L154.441 76.3714C155.493 76.8287 158.948 77.9305 157.993 80.1295Z" fill="white"/>
<g filter="url(#filter0_d)">
<path d="M212.744 54.0029C222.716 55.5008 232.013 48.6319 233.511 38.6606C235.009 28.6894 228.14 19.3919 218.169 17.894C208.198 16.3961 198.9 23.265 197.402 33.2362C195.904 43.2075 202.773 52.505 212.744 54.0029Z" fill="#627EEA"/>
<path d="M218.053 22.492L216.549 32.5009L224.441 37.5519L218.053 22.492Z" fill="white" fill-opacity="0.602"/>
<path d="M218.053 22.492L207.521 35.0101L216.549 32.501L218.053 22.492Z" fill="white"/>
<path d="M215.007 42.7671L213.985 49.568L224.21 39.128L215.007 42.7671Z" fill="white" fill-opacity="0.602"/>
<path d="M213.985 49.568L215.007 42.766L207.283 36.5853L213.985 49.568Z" fill="white"/>
<path d="M215.243 41.1931L224.441 37.5519L216.549 32.5032L215.243 41.1931Z" fill="white" fill-opacity="0.2"/>
<path d="M207.52 35.01L215.243 41.193L216.548 32.5032L207.52 35.01Z" fill="white" fill-opacity="0.602"/>
</g>
</g>
<g style="mix-blend-mode:luminosity" opacity="0.4">
<path d="M301.753 52.2982C311.733 53.7974 321.038 46.9224 322.538 36.9423C324.037 26.9623 317.162 17.6565 307.182 16.1573C297.202 14.658 287.896 21.5331 286.397 31.5131C284.897 41.4932 291.773 50.799 301.753 52.2982Z" fill="#F7931A"/>
<path d="M312.923 33.2113C313.633 30.8973 312.02 29.3535 309.684 28.134L310.965 25.0466L309.086 24.2678L307.838 27.2735C307.345 27.0677 306.836 26.869 306.329 26.6703L307.586 23.6451L305.708 22.8652L304.427 25.9514C304.016 25.7905 303.613 25.6329 303.224 25.4705L303.228 25.4607L300.636 24.3842L299.803 26.391C299.803 26.391 301.202 26.9407 301.169 26.9565C301.93 27.2729 301.994 27.8172 301.907 28.2293L300.448 31.7461C300.5 31.7678 300.567 31.7987 300.642 31.841L300.443 31.7592L298.398 36.6859C298.265 36.9108 297.965 37.2342 297.432 37.0144C297.449 37.0457 296.067 36.4478 296.067 36.4478L294.762 38.5362L297.208 39.5516C297.663 39.7411 298.107 39.9349 298.545 40.1196L297.25 43.2419L299.127 44.0206L300.409 40.9332C300.92 41.1567 301.418 41.3677 301.905 41.5702L300.627 44.6443L302.506 45.4232L303.8 42.3076C307.035 43.438 309.576 43.5598 311.082 40.7071C312.295 38.411 311.614 36.8778 309.999 35.7032C311.32 35.6013 312.406 34.9064 312.923 33.2113ZM307.522 38.7957C306.556 41.1301 302.67 39.2056 301.396 38.6781L303.114 34.5419C304.388 35.0716 308.533 36.363 307.522 38.7957ZM309.071 32.5968C308.19 34.7199 304.961 33.0881 303.901 32.6482L305.458 28.8977C306.517 29.3376 309.99 30.3824 309.071 32.5968Z" fill="white"/>
<g filter="url(#filter1_d)">
<path d="M368.968 61.3073C378.939 62.8052 388.237 55.9362 389.735 45.965C391.233 35.9938 384.364 26.6962 374.393 25.1983C364.421 23.7004 355.124 30.5694 353.626 40.5406C352.128 50.5118 358.997 59.8094 368.968 61.3073Z" fill="#627EEA"/>
<path d="M374.276 29.7963L372.773 39.8053L380.665 44.8563L374.276 29.7963Z" fill="white" fill-opacity="0.602"/>
<path d="M374.277 29.7964L363.744 42.3145L372.773 39.8053L374.277 29.7964Z" fill="white"/>
<path d="M371.231 50.0715L370.209 56.8724L380.434 46.4324L371.231 50.0715Z" fill="white" fill-opacity="0.602"/>
<path d="M370.209 56.8723L371.23 50.0703L363.507 43.8896L370.209 56.8723Z" fill="white"/>
<path d="M371.467 48.4974L380.665 44.8563L372.772 39.8076L371.467 48.4974Z" fill="white" fill-opacity="0.2"/>
<path d="M363.744 42.3144L371.467 48.4973L372.772 39.8075L363.744 42.3144Z" fill="white" fill-opacity="0.602"/>
</g>
</g>
<defs>
<filter id="filter0_d" x="190.246" y="17.6889" width="50.4208" height="50.4208" filterUnits="userSpaceOnUse" color-interpolation-filters="sRGB">
<feFlood flood-opacity="0" result="BackgroundImageFix"/>
<feColorMatrix in="SourceAlpha" type="matrix" values="0 0 0 0 0 0 0 0 0 0 0 0 0 0 0 0 0 0 127 0"/>
<feOffset dy="6.95086"/>
<feGaussianBlur stdDeviation="3.47543"/>
<feColorMatrix type="matrix" values="0 0 0 0 0 0 0 0 0 0 0 0 0 0 0 0 0 0 0.08 0"/>
<feBlend mode="normal" in2="BackgroundImageFix" result="effect1_dropShadow"/>
<feBlend mode="normal" in="SourceGraphic" in2="effect1_dropShadow" result="shape"/>
</filter>
<filter id="filter1_d" x="346.47" y="24.9933" width="50.4208" height="50.4208" filterUnits="userSpaceOnUse" color-interpolation-filters="sRGB">
<feFlood flood-opacity="0" result="BackgroundImageFix"/>
<feColorMatrix in="SourceAlpha" type="matrix" values="0 0 0 0 0 0 0 0 0 0 0 0 0 0 0 0 0 0 127 0"/>
<feOffset dy="6.95086"/>
<feGaussianBlur stdDeviation="3.47543"/>
<feColorMatrix type="matrix" values="0 0 0 0 0 0 0 0 0 0 0 0 0 0 0 0 0 0 0.08 0"/>
<feBlend mode="normal" in2="BackgroundImageFix" result="effect1_dropShadow"/>
<feBlend mode="normal" in="SourceGraphic" in2="effect1_dropShadow" result="shape"/>
</filter>
</defs>
</svg>
