<svg xmlns="http://www.w3.org/2000/svg" version="1.1" xmlns:xlink="http://www.w3.org/1999/xlink" xmlns:svgjs="http://svgjs.dev/svgjs" width="1500" height="1500" viewBox="0 0 1500 1500"><rect width="1500" height="1500" fill="#ffffff"></rect><g transform="matrix(0.6666666666666666,0,0,0.6666666666666666,249.39393939393938,614.9648141268185)"><svg viewBox="0 0 396 107" data-background-color="#ffffff" preserveAspectRatio="xMidYMid meet" height="405" width="1500" xmlns="http://www.w3.org/2000/svg" xmlns:xlink="http://www.w3.org/1999/xlink"><g id="tight-bounds" transform="matrix(1,0,0,1,0.2400000000000091,0.013944031223758202)"><svg viewBox="0 0 395.52 106.97211193755247" height="106.97211193755247" width="395.52"><g><svg viewBox="0 0 577.0463021802129 156.0676113217346" height="106.97211193755247" width="395.52"><g transform="matrix(1,0,0,1,0,56.4655896130875)"><svg viewBox="0 0 395.52 43.13643209555959" height="43.13643209555959" width="395.52"><g id="textblocktransform"><svg viewBox="0 0 395.52 43.13643209555959" height="43.13643209555959" width="395.52" id="textblock"><g><svg viewBox="0 0 395.52 43.13643209555959" height="43.13643209555959" width="395.52"><g transform="matrix(1,0,0,1,0,0)"><svg width="395.52" viewBox="2.4399999999999995 -31.74 376.04 41.019999999999996" height="43.13643209555959" data-palette-color="#6b7280"><path d="M26.76-2.25L26.76-2.25Q26.76-0.2 27.34 0.1L27.34 0.1Q27.69 0.24 28.27 0.24L28.27 0.24 28.27-8.98 27.1-8.98Q24.61-0.93 17.14-0.88L17.14-0.88Q10.79-0.88 8.5-7.28L8.5-7.28Q7.37-10.4 7.37-14.65L7.37-14.65Q7.37-23.78 12.4-27.05L12.4-27.05Q14.6-28.42 17.29-28.42L17.29-28.42Q23.39-28.42 26.12-22.66L26.12-22.66Q26.61-21.63 26.95-20.56L26.95-20.56 28.13-20.56 27.98-29.54Q26.9-29.54 26.66-28.86L26.66-28.86Q26.51-28.27 26.51-26.95L26.51-26.95Q25.1-28.37 21.68-29.25L21.68-29.25Q19.43-29.79 17.09-29.79L17.09-29.79Q9.38-29.79 5.27-24.07L5.27-24.07Q2.44-20.02 2.44-14.75L2.44-14.75Q2.44-8.35 6.4-4L6.4-4Q10.6 0.49 17.33 0.49L17.33 0.49Q22.27 0.44 26.76-2.25ZM42.87-1.22L42.87-1.22 39.35-1.22 39.35-10.94Q39.35-15.38 42.09-18.07L42.09-18.07Q43.16-19.09 43.89-19.14L43.89-19.14Q44.72-19.14 45.41-17.92L45.41-17.92Q46.19-16.55 46.87-16.36L46.87-16.36Q47.17-16.26 47.46-16.26L47.46-16.26Q48.92-16.26 49.31-17.68L49.31-17.68Q49.41-17.97 49.41-18.26L49.41-18.26Q49.41-20.46 47.17-20.95L47.17-20.95Q46.68-21.04 46.24-21.04L46.24-21.04Q43.31-21.04 41.01-18.55L41.01-18.55Q39.94-17.38 39.3-15.92L39.3-15.92 39.11-20.75 32.03-20.75 32.03-19.53 35.69-19.53 35.69-4.15Q35.69-1.9 34.42-1.46L34.42-1.46Q33.69-1.22 32.03-1.22L32.03-1.22 32.03 0 44.09 0Q44.09-1.07 43.36-1.17L43.36-1.17Q43.16-1.22 42.87-1.22ZM54.68 7.76L54.68 7.76Q53.9 7.76 53.51 6.59L53.51 6.59Q52.97 5.13 52.49 4.79L52.49 4.79Q52.05 4.49 51.46 4.49L51.46 4.49Q49.9 4.49 49.65 5.86L49.65 5.86Q49.6 6.05 49.6 6.2L49.6 6.2Q49.6 8.06 51.75 8.89L51.75 8.89Q52.73 9.28 53.8 9.28L53.8 9.28Q57.66 9.28 60.49 4.54L60.49 4.54Q61.66 2.64 62.74 0L62.74 0 69.97-17.82Q70.45-19.19 71.04-19.38L71.04-19.38Q71.38-19.48 71.82-19.48L71.82-19.48Q72.8-19.48 72.94-20.02L72.94-20.02Q73.04-20.31 73.04-20.75L73.04-20.75 65.62-20.75 65.62-19.48 69.18-19.48 62.93-3.86 56.25-19.48 59.52-19.48 59.52-20.75 50-20.75 50-19.48 52.39-19.48 61.18 0Q58.44 6.45 56.05 7.47L56.05 7.47Q55.37 7.76 54.68 7.76ZM85.3 8.06L81.88 8.06 81.88-2.05Q84.56 0.29 88.08 0.49L88.08 0.49Q92.42 0.49 95.35-2.78L95.35-2.78Q98.19-5.96 98.19-10.84L98.19-10.84Q98.19-16.41 95.11-19.29L95.11-19.29Q92.96-21.24 89.89-21.24L89.89-21.24Q85.15-21.24 82.81-17.48L82.81-17.48Q82.22-16.5 81.83-15.43L81.83-15.43 81.58-20.75 74.55-20.75 74.55-19.53 78.22-19.53 78.22 5.13Q78.22 7.37 76.95 7.81L76.95 7.81Q76.21 8.06 74.55 8.06L74.55 8.06 74.55 9.28 86.52 9.28Q86.52 8.2 85.78 8.11L85.78 8.11Q85.59 8.06 85.3 8.06L85.3 8.06ZM88.32-19.29L88.32-19.29Q92.57-19.29 93.69-13.96L93.69-13.96Q94.04-12.35 94.04-10.35L94.04-10.35Q94.04-3.17 90.18-1.27L90.18-1.27Q89.06-0.73 87.74-0.73L87.74-0.73Q83.98-0.73 82.56-4.69L82.56-4.69Q81.83-6.69 81.83-9.42L81.83-9.42Q81.83-15.77 85.1-18.21L85.1-18.21Q86.56-19.29 88.32-19.29ZM101.11-20.75L101.11-19.53 104.53-19.53 104.53-5.76Q104.87 0.34 110.15 0.54L110.15 0.54Q114.64 0.54 115.76-4.98L115.76-4.98Q115.76-5.03 115.76-5.08L115.76-5.08 114.44-5.32Q113.22-1.27 110.88-0.93L110.88-0.93Q108.24-1.03 108.19-4.69L108.19-4.69 108.19-19.53 115.76-19.53 115.76-20.75 108.19-20.75 108.19-26.42 104.53-25.39 104.53-20.75 101.11-20.75ZM122.11-10.4L122.11-10.4Q122.11-17.97 126.26-19.63L126.26-19.63Q127.33-20.02 128.5-20.02L128.5-20.02Q133.92-20.02 134.8-13.18L134.8-13.18Q134.95-12.01 134.95-10.6L134.95-10.6Q134.95-2.39 130.46-0.98L130.46-0.98Q129.58-0.73 128.65-0.73L128.65-0.73Q123.72-0.73 122.45-6.59L122.45-6.59Q122.11-8.3 122.11-10.4ZM128.65-21.24L128.65-21.24Q123.96-21.24 120.84-18.02L120.84-18.02Q117.96-15.04 117.96-10.6L117.96-10.6Q117.96-4.44 122.45-1.37L122.45-1.37Q125.18 0.49 128.5 0.49L128.5 0.49Q133.19 0.49 136.27-2.83L136.27-2.83Q139.1-5.86 139.1-10.4L139.1-10.4Q139.1-16.55 134.56-19.53L134.56-19.53Q131.87-21.24 128.65-21.24ZM151.11-28.03L156.43-28.03Q160.78-28.03 162.05-24.12L162.05-24.12Q162.44-22.85 162.44-21.39L162.44-21.39Q162.44-15.04 156.77-14.4L156.77-14.4Q156.19-14.36 155.6-14.36L155.6-14.36 151.11-14.36 151.11-28.03ZM143 0L155.99 0Q155.99-1.07 155.21-1.22L155.21-1.22Q154.97-1.27 154.72-1.27L154.72-1.27 151.11-1.27 151.11-12.94 155.4-12.94Q163.41-12.94 166-17.48L166-17.48Q167.03-19.19 167.03-21.44L167.03-21.44Q167.03-26.27 162.83-28.22L162.83-28.22Q160.58-29.3 157.46-29.3L157.46-29.3 143-29.3 143-28.03 146.91-28.03 146.91-1.27 143-1.27 143 0ZM180.06-1.22L180.06-1.22 177.42-1.22 177.42-31.74 170.1-31.74 170.1-30.52 173.76-30.52 173.76-4.15Q173.76-1.9 172.49-1.46L172.49-1.46Q171.76-1.22 170.1-1.22L170.1-1.22 170.1 0 181.28 0Q181.28-1.07 180.55-1.17L180.55-1.17Q180.35-1.22 180.06-1.22ZM201.69 0.49L201.69 0.49Q205.45 0.49 205.84-4.05L205.84-4.05Q205.89-4.35 205.89-4.59L205.89-4.59 204.62-4.64Q204.28-1.07 202.71-1.03L202.71-1.03Q201.44-1.12 201.4-3.56L201.4-3.56 201.4-13.87Q201.4-20.85 194.41-21.24L194.41-21.24Q193.97-21.24 193.53-21.24L193.53-21.24Q188.07-21.24 186.21-18.7L186.21-18.7Q185.62-17.87 185.62-17.04L185.62-17.04Q185.62-15.53 187.04-15.28L187.04-15.28Q187.28-15.23 187.53-15.23L187.53-15.23Q188.65-15.23 189.19-16.65L189.19-16.65Q189.87-18.46 190.12-18.8L190.12-18.8Q191.04-20.02 193-20.02L193-20.02Q197.59-19.73 197.73-14.99L197.73-14.99 197.73-11.91Q186.26-11.91 184.6-7.13L184.6-7.13Q184.31-6.2 184.31-5.13L184.31-5.13Q184.31-1.42 187.58-0.05L187.58-0.05Q188.9 0.49 190.36 0.49L190.36 0.49Q193.93 0.49 196.37-1.95L196.37-1.95Q197.25-2.88 197.69-3.91L197.69-3.91Q198.27 0.44 201.69 0.49ZM191.97-1.46L191.97-1.46Q188.99-1.46 188.31-4.44L188.31-4.44Q188.16-5.13 188.16-5.96L188.16-5.96Q188.16-9.23 191.92-10.11L191.92-10.11Q193.93-10.55 197.73-10.6L197.73-10.6 197.73-6.69Q197-3.32 194.17-1.95L194.17-1.95Q193.05-1.46 191.97-1.46ZM211.16 7.76L211.16 7.76Q210.38 7.76 209.99 6.59L209.99 6.59Q209.45 5.13 208.96 4.79L208.96 4.79Q208.52 4.49 207.94 4.49L207.94 4.49Q206.37 4.49 206.13 5.86L206.13 5.86Q206.08 6.05 206.08 6.2L206.08 6.2Q206.08 8.06 208.23 8.89L208.23 8.89Q209.21 9.28 210.28 9.28L210.28 9.28Q214.14 9.28 216.97 4.54L216.97 4.54Q218.14 2.64 219.22 0L219.22 0 226.44-17.82Q226.93-19.19 227.52-19.38L227.52-19.38Q227.86-19.48 228.3-19.48L228.3-19.48Q229.27-19.48 229.42-20.02L229.42-20.02Q229.52-20.31 229.52-20.75L229.52-20.75 222.1-20.75 222.1-19.48 225.66-19.48 219.41-3.86 212.72-19.48 215.99-19.48 215.99-20.75 206.47-20.75 206.47-19.48 208.86-19.48 217.65 0Q214.92 6.45 212.53 7.47L212.53 7.47Q211.84 7.76 211.16 7.76ZM236.11-13.53L236.11-13.53Q236.21-19.97 240.99-20.02L240.99-20.02Q245.78-19.92 245.82-13.53L245.82-13.53Q245.73-6.88 240.99-6.84L240.99-6.84Q236.16-6.93 236.11-13.53ZM241.04-21.24L241.04-21.24Q236.64-21.24 234.06-18.41L234.06-18.41Q232.2-16.31 232.2-13.48L232.2-13.48Q232.2-9.77 235.81-7.32L235.81-7.32Q236.16-7.08 236.5-6.88L236.5-6.88Q233.37-6.88 232.59-4.2L232.59-4.2Q232.45-3.56 232.45-2.93L232.45-2.93Q232.49-0.34 234.55 0.93L234.55 0.93Q232.93 2.64 232.93 4.39L232.93 4.39Q232.93 7.08 236.11 8.4L236.11 8.4Q238.11 9.28 241.04 9.28L241.04 9.28Q248.46 9.28 250.85 5.66L250.85 5.66Q251.64 4.44 251.64 3.08L251.64 3.08Q251.64-1.12 246.8-1.76L246.8-1.76Q246.17-1.86 245.48-1.86L245.48-1.86 236.6-2.05Q234.35-2.2 234.3-4L234.3-4Q234.3-5.27 235.91-5.62L235.91-5.62Q236.25-5.66 236.64-5.66L236.64-5.66 240.94-5.62Q245.29-5.62 247.88-8.54L247.88-8.54Q249.73-10.64 249.73-13.53L249.73-13.53Q249.68-17.19 246.9-19.38L246.9-19.38Q247.34-20.95 248.56-21.24L248.56-21.24Q248.75-21.29 248.95-21.29L248.95-21.29Q249.63-21.29 250.41-20.56L250.41-20.56Q250.95-20.07 251.39-20.07L251.39-20.07Q252.61-20.36 252.81-21.63L252.81-21.63Q252.81-23.14 251.39-23.68L251.39-23.68Q250.85-23.88 250.32-23.88L250.32-23.88Q248.02-23.88 246.61-21.83L246.61-21.83Q246.07-21.04 245.78-20.12L245.78-20.12Q243.58-21.24 241.04-21.24ZM241.04 8.01L241.04 8.01Q236.21 8.01 234.94 5.47L234.94 5.47Q234.59 4.79 234.59 4.1L234.59 4.1Q234.64 2.78 235.77 1.46L235.77 1.46Q236.74 1.66 237.38 1.66L237.38 1.66 244.9 1.76Q248.56 1.81 249.14 3.42L249.14 3.42Q249.29 3.81 249.29 4.39L249.29 4.39Q249.29 6.54 245.29 7.52L245.29 7.52Q243.33 8.01 241.04 8.01ZM265.65-1.22L265.65-1.22 262.13-1.22 262.13-10.94Q262.13-15.38 264.87-18.07L264.87-18.07Q265.94-19.09 266.67-19.14L266.67-19.14Q267.5-19.14 268.19-17.92L268.19-17.92Q268.97-16.55 269.65-16.36L269.65-16.36Q269.94-16.26 270.24-16.26L270.24-16.26Q271.7-16.26 272.09-17.68L272.09-17.68Q272.19-17.97 272.19-18.26L272.19-18.26Q272.19-20.46 269.94-20.95L269.94-20.95Q269.45-21.04 269.02-21.04L269.02-21.04Q266.09-21.04 263.79-18.55L263.79-18.55Q262.72-17.38 262.08-15.92L262.08-15.92 261.89-20.75 254.81-20.75 254.81-19.53 258.47-19.53 258.47-4.15Q258.47-1.9 257.2-1.46L257.2-1.46Q256.47-1.22 254.81-1.22L254.81-1.22 254.81 0 266.87 0Q266.87-1.07 266.13-1.17L266.13-1.17Q265.94-1.22 265.65-1.22ZM278.53-10.4L278.53-10.4Q278.53-17.97 282.68-19.63L282.68-19.63Q283.76-20.02 284.93-20.02L284.93-20.02Q290.35-20.02 291.23-13.18L291.23-13.18Q291.38-12.01 291.38-10.6L291.38-10.6Q291.38-2.39 286.88-0.98L286.88-0.98Q286.01-0.73 285.08-0.73L285.08-0.73Q280.15-0.73 278.88-6.59L278.88-6.59Q278.53-8.3 278.53-10.4ZM285.08-21.24L285.08-21.24Q280.39-21.24 277.26-18.02L277.26-18.02Q274.38-15.04 274.38-10.6L274.38-10.6Q274.38-4.44 278.88-1.37L278.88-1.37Q281.61 0.49 284.93 0.49L284.93 0.49Q289.62 0.49 292.69-2.83L292.69-2.83Q295.53-5.86 295.53-10.4L295.53-10.4Q295.53-16.55 290.99-19.53L290.99-19.53Q288.3-21.24 285.08-21.24ZM322.62-1.22L322.62-1.22 320.18-1.22 320.18-20.75 312.52-20.75 312.52-19.53 316.52-19.53 316.52-8.98Q316.52-4.59 313.44-2.54L313.44-2.54Q312.08-1.61 310.61-1.61L310.61-1.61Q306.61-1.61 305.97-5.71L305.97-5.71Q305.88-6.4 305.88-7.18L305.88-7.18 305.88-20.75 298.45-20.75 298.45-19.53 302.21-19.53 302.21-7.91Q302.26 0.44 309.2 0.49L309.2 0.49Q312.86 0.49 315.2-2.49L315.2-2.49Q316.08-3.61 316.62-4.98L316.62-4.98 316.96 0 323.84 0Q323.84-1.07 323.11-1.17L323.11-1.17Q322.92-1.22 322.62-1.22ZM336.15-1.22L336.15-1.22 333.95-1.22 333.95-11.77Q334.1-16.31 337.17-18.31L337.17-18.31Q338.49-19.14 339.86-19.14L339.86-19.14Q342.84-19.14 343.91-16.36L343.91-16.36Q344.35-15.23 344.35-13.82L344.35-13.82 344.35-4.15Q344.35-1.9 343.08-1.46L343.08-1.46Q342.35-1.22 340.69-1.22L340.69-1.22 340.69 0 351.67 0Q351.67-1.07 350.94-1.17L350.94-1.17Q350.75-1.22 350.45-1.22L350.45-1.22 348.01-1.22 348.01-13.33Q348.01-18.21 344.64-20.31L344.64-20.31Q343.08-21.24 341.27-21.24L341.27-21.24Q337.66-21.24 335.32-18.36L335.32-18.36Q334.44-17.24 333.9-15.87L333.9-15.87 333.71-20.75 326.63-20.75 326.63-19.53 330.29-19.53 330.29-4.15Q330.29-1.9 329.02-1.46L329.02-1.46Q328.29-1.22 326.63-1.22L326.63-1.22 326.63 0 337.37 0Q337.37-1.07 336.63-1.17L336.63-1.17Q336.44-1.22 336.15-1.22ZM371.11-5.18L371.5 0 378.48 0Q378.48-1.07 377.75-1.17L377.75-1.17Q377.55-1.22 377.26-1.22L377.26-1.22 374.82-1.22 374.72-31.74 366.42-31.74 366.42-30.52 371.06-30.52 371.06-18.6Q368.66-21.24 364.61-21.24L364.61-21.24Q359.24-21.24 356.51-16.46L356.51-16.46Q354.85-13.53 354.85-9.86L354.85-9.86Q354.85-3.81 358.65-1.03L358.65-1.03Q360.8 0.49 363.39 0.49L363.39 0.49Q368.71 0.39 371.11-5.18L371.11-5.18ZM359-10.45L359-10.45Q359-17.33 362.71-19.38L362.71-19.38Q363.88-20.02 365.29-20.02L365.29-20.02Q368.86-20.02 370.37-16.21L370.37-16.21Q371.2-14.16 371.2-11.38L371.2-11.38Q371.2-5.52 368.27-2.88L368.27-2.88Q366.71-1.46 364.71-1.46L364.71-1.46Q360.7-1.46 359.48-6.35L359.48-6.35Q359-8.15 359-10.45Z" opacity="1" transform="matrix(1,0,0,1,0,0)" fill="#6b7280" class="wordmark-text-0" data-fill-palette-color="primary" id="text-0"></path></svg></g></svg></g></svg></g></svg></g><g transform="matrix(1,0,0,1,420.9786908584783,0)"><svg viewBox="0 0 156.0676113217346 156.0676113217346" height="156.0676113217346" width="156.0676113217346"><g><svg viewBox="0 0 156.0676113217346 156.0676113217346" height="156.0676113217346" width="156.0676113217346"><g transform="matrix(1,0,0,1,52.28396352672415,41.24831689780566)"><svg viewBox="0 0 51.499684268286295 73.57097752612329" height="73.57097752612329" width="51.499684268286295"><g><svg xmlns="http://www.w3.org/2000/svg" xml:space="preserve" viewBox="32.5 25 35 50" x="0" y="0" height="73.57097752612329" width="51.499684268286295" class="icon-dxe-0" data-fill-palette-color="accent" id="dxe-0"><path d="M32.5 64V30c0-2.75 2.25-5 5-5h25c2.75 0 5 2.25 5 5v34z m0 6c0 2.75 2.25 5 5 5h25c2.75 0 5-2.25 5-5v-1h-35z" fill="#97978d" data-fill-palette-color="accent"></path></svg></g></svg></g><g id="text-0"><path d="M17.091 51.145v0c0.533 0.185 0.863 0.214 0.99 0.087v0c0.067-0.073 0.127-0.186 0.18-0.34v0l-3.584-1.247-0.16 0.46c1.865 1.37 2.467 3.025 1.806 4.966v0c-0.571 1.642-1.787 2.472-3.649 2.491v0c-0.915 0.004-1.921-0.184-3.017-0.566v0c-2.365-0.823-3.744-2.031-4.138-3.624v0c-0.157-0.693-0.114-1.389 0.129-2.088v0c0.55-1.581 1.692-2.464 3.426-2.651v0c0.314-0.035 0.624-0.047 0.929-0.037v0l0.16-0.459-3.511-1.16c-0.098 0.282-0.069 0.484 0.087 0.607v0c0.14 0.09 0.382 0.195 0.726 0.314v0c-0.496 0.24-1.011 0.764-1.547 1.574v0c-0.343 0.533-0.621 1.103-0.832 1.71v0c-0.695 1.997-0.485 3.784 0.628 5.359v0c0.792 1.1 1.871 1.887 3.238 2.363v0c1.654 0.576 3.223 0.548 4.706-0.083v0c1.544-0.686 2.619-1.901 3.227-3.648v0c0.431-1.279 0.5-2.622 0.206-4.028z" fill="#97978d" data-fill-palette-color="accent"></path><path d="M21.165 44.464v0l-0.709 1.253-3.472-1.965c-1.061-0.601-1.73-1.408-2.006-2.422v0c-0.096-0.397-0.1-0.686-0.012-0.868v0c0.112-0.198 0.359-0.292 0.742-0.284v0c0.43-0.01 0.716-0.079 0.856-0.208v0c0.064-0.061 0.115-0.125 0.154-0.193v0c0.198-0.35 0.155-0.669-0.129-0.957v0c-0.055-0.061-0.119-0.112-0.193-0.153v0c-0.525-0.297-0.996-0.21-1.412 0.262v0c-0.09 0.106-0.163 0.209-0.221 0.312v0c-0.396 0.7-0.453 1.492-0.17 2.374v0c0.13 0.416 0.328 0.797 0.595 1.142v0l-1.771-0.902-1.433 2.532 0.44 0.249 0.743-1.312 5.504 3.116c0.536 0.304 0.769 0.637 0.698 0.999v0c-0.043 0.207-0.176 0.508-0.399 0.903v0l0.44 0.249 2.445-4.318c-0.254-0.144-0.445-0.136-0.572 0.023v0c-0.037 0.039-0.076 0.095-0.118 0.168z" fill="#97978d" data-fill-palette-color="accent"></path><path d="M27.438 41.719v0c-0.133 0.168-0.359 0.196-0.676 0.084v0c-0.408-0.134-0.69-0.18-0.847-0.139v0c-0.138 0.048-0.257 0.136-0.357 0.262v0c-0.266 0.335-0.273 0.645-0.019 0.931v0c0.033 0.042 0.064 0.076 0.095 0.1v0c0.401 0.319 0.874 0.318 1.419-0.003v0c0.247-0.144 0.461-0.33 0.643-0.558v0c0.658-0.828 0.722-1.95 0.19-3.367v0c-0.209-0.581-0.505-1.21-0.887-1.886v0l-3.882-6.891c-0.214-0.336-0.29-0.583-0.23-0.742v0c0.036-0.087 0.093-0.179 0.169-0.276v0c0.166-0.208 0.202-0.374 0.11-0.497v0c-0.046-0.078-0.114-0.153-0.206-0.226v0l-1.902 2.392 0.412 0.327 0.908-1.143 3.428 6.008-6.735-1.849 0.836-1.051-0.411-0.327-2.441 3.069 0.412 0.327 0.617-0.777 8.515 2.159c0.913 1.687 1.277 2.876 1.093 3.566v0c-0.056 0.196-0.141 0.365-0.254 0.507z" fill="#97978d" data-fill-palette-color="accent"></path><path d="M36.35 32.108l-1.049 0.944-2.787-3.094c0.979-0.018 1.845-0.326 2.597-0.925v0c0.887-0.799 1.327-1.803 1.321-3.011v0c-0.008-1.163-0.46-2.24-1.354-3.233v0c-1.02-1.133-2.109-1.711-3.265-1.735v0c-0.794-0.009-1.505 0.268-2.131 0.833v0c-0.969 0.873-1.346 1.907-1.133 3.104v0c0.062 0.302 0.152 0.6 0.27 0.896v0l-1.538-1.562-2.147 1.935 0.339 0.376 1.113-1.003 6.787 7.533c0.412 0.458 0.53 0.845 0.353 1.162v0c-0.102 0.188-0.321 0.433-0.659 0.737v0l0.333 0.369 3.65-3.289c-0.195-0.217-0.376-0.268-0.543-0.153v0c-0.047 0.025-0.1 0.064-0.157 0.116zM29.746 22.917v0c0.863-0.777 1.898-0.728 3.106 0.148v0c0.363 0.267 0.726 0.603 1.091 1.008v0c1.32 1.465 1.761 2.744 1.323 3.838v0c-0.127 0.315-0.325 0.594-0.595 0.837v0c-0.766 0.69-1.657 0.763-2.671 0.219v0c-0.518-0.275-1.027-0.69-1.526-1.244v0c-1.168-1.296-1.643-2.493-1.426-3.588v0c0.103-0.486 0.336-0.892 0.698-1.218z" fill="#97978d" data-fill-palette-color="accent"></path><path d="M35.342 17.609l0.275 0.424 1.184-0.768 3.077 4.743c0.987 1.355 2.103 1.663 3.349 0.924v0c1.034-0.671 1.267-1.723 0.7-3.157v0c-0.011-0.016-0.019-0.03-0.026-0.041v0l-0.502 0.21c0.321 1.114 0.238 1.887-0.248 2.318v0c-0.618 0.37-1.206 0.137-1.764-0.7v0l-3.321-5.118 2.604-1.689-0.276-0.425-2.604 1.69-1.265-1.951-1.038 1.172 1.038 1.6z" fill="#97978d" data-fill-palette-color="accent"></path><path d="M46.662 15.909v0c-0.877-1.875-0.898-3.261-0.065-4.159v0c0.226-0.22 0.483-0.398 0.771-0.533v0c1.346-0.629 2.527-0.147 3.545 1.447v0c0.17 0.271 0.337 0.583 0.502 0.936v0c0.954 2.039 0.955 3.496 0.003 4.37v0c-0.19 0.16-0.402 0.296-0.637 0.406v0c-1.222 0.572-2.333 0.203-3.332-1.106v0c-0.28-0.385-0.542-0.838-0.787-1.361zM47.207 10.734v0c-1.163 0.544-1.946 1.397-2.348 2.559v0c-0.365 1.073-0.289 2.162 0.227 3.267v0c0.715 1.528 1.806 2.414 3.274 2.658v0c0.899 0.145 1.759 0.026 2.582-0.359v0c1.163-0.544 1.933-1.409 2.31-2.595v0c0.353-1.082 0.266-2.187-0.261-3.315v0c-0.715-1.528-1.808-2.395-3.28-2.602v0c-0.865-0.118-1.699 0.011-2.504 0.387z" fill="#97978d" data-fill-palette-color="accent"></path><path d="M57.642 4.058l2.119-0.553c1.155-0.301 2.035 0.025 2.639 0.98v0c0.194 0.305 0.341 0.652 0.443 1.041v0c0.439 1.682-0.069 2.804-1.525 3.365v0c-0.154 0.054-0.309 0.101-0.466 0.142v0l-1.789 0.467zM57.335 16.055l5.159-1.346c-0.074-0.282-0.22-0.419-0.438-0.409v0c-0.066 0.004-0.13 0.014-0.194 0.03v0l-1.44 0.376-1.212-4.641 1.714-0.448c2.122-0.554 3.37-1.523 3.746-2.908v0c0.152-0.522 0.15-1.082-0.005-1.678v0c-0.334-1.28-1.128-2.035-2.382-2.265v0c-0.67-0.127-1.419-0.082-2.248 0.134v0l-5.743 1.499 0.13 0.499 1.554-0.405 2.779 10.648-1.553 0.406z" fill="#97978d" data-fill-palette-color="accent"></path><path d="M73.331 12.359v0l-1.074 0.114-1.322-12.473-2.999 0.318 0.052 0.493 1.5-0.159 1.143 10.79c0.065 0.613-0.071 0.996-0.407 1.148v0c-0.193 0.086-0.516 0.152-0.967 0.201v0l0.053 0.503 4.577-0.485c-0.031-0.29-0.148-0.441-0.351-0.452v0c-0.059-0.007-0.128-0.006-0.205 0.002z" fill="#97978d" data-fill-palette-color="accent"></path><path d="M83.484 13.217v0c1.031 0.035 1.619-0.568 1.765-1.81v0c0.016-0.084 0.025-0.158 0.027-0.223v0l-0.515-0.037c-0.13 0.976-0.41 1.463-0.838 1.462v0c-0.343-0.038-0.509-0.394-0.499-1.069v0l0.143-4.23c0.065-1.913-0.86-2.957-2.775-3.132v0c-0.117-0.004-0.237-0.008-0.36-0.012v0c-1.498-0.051-2.511 0.265-3.041 0.948v0c-0.17 0.221-0.259 0.446-0.266 0.673v0c-0.014 0.415 0.172 0.661 0.559 0.739v0c0.064 0.015 0.129 0.024 0.194 0.026v0c0.311 0.011 0.548-0.176 0.71-0.56v0c0.198-0.487 0.335-0.777 0.409-0.872v0c0.264-0.322 0.665-0.474 1.204-0.456v0c1.255 0.12 1.88 0.83 1.875 2.128v0l-0.043 1.264c-3.144-0.107-4.966 0.49-5.464 1.791v0c-0.093 0.25-0.144 0.521-0.155 0.813v0c-0.035 1.018 0.389 1.73 1.272 2.136v0c0.358 0.161 0.738 0.249 1.14 0.263v0c0.979 0.033 1.814-0.276 2.504-0.928v0c0.248-0.245 0.439-0.504 0.572-0.779v0c0.115 1.198 0.643 1.82 1.582 1.865zM79.514 12.274v0c-0.817-0.028-1.306-0.453-1.466-1.276v0c-0.033-0.189-0.045-0.397-0.037-0.625v0c0.03-0.895 0.565-1.445 1.604-1.649v0c0.555-0.104 1.355-0.146 2.399-0.123v0l-0.054 1.604c-0.232 0.92-0.744 1.552-1.534 1.895v0c-0.309 0.126-0.613 0.184-0.912 0.174z" fill="#97978d" data-fill-palette-color="accent"></path><path d="M87.769 16.809v0c-0.21-0.043-0.336-0.232-0.379-0.565v0c-0.065-0.424-0.151-0.697-0.259-0.819v0c-0.105-0.101-0.237-0.168-0.395-0.201v0c-0.419-0.087-0.699 0.048-0.839 0.403v0c-0.023 0.048-0.039 0.091-0.046 0.13v0c-0.104 0.502 0.11 0.924 0.642 1.265v0c0.239 0.155 0.502 0.263 0.788 0.322v0c1.036 0.214 2.066-0.235 3.091-1.348v0c0.424-0.449 0.852-0.996 1.283-1.643v0l4.399-6.572c0.203-0.342 0.389-0.522 0.559-0.541v0c0.094-0.007 0.202 0.002 0.323 0.027v0c0.26 0.054 0.425 0.012 0.493-0.127v0c0.049-0.076 0.085-0.171 0.109-0.285v0l-2.993-0.619-0.106 0.515 1.429 0.295-3.815 5.77-1.388-6.845 1.315 0.272 0.107-0.515-3.84-0.793-0.107 0.514 0.972 0.201 1.915 8.573c-1.094 1.576-1.991 2.437-2.691 2.584v0c-0.2 0.038-0.389 0.039-0.567 0.002z" fill="#97978d" data-fill-palette-color="accent"></path><path d="M101.395 11.274v0c0.647-1.642 1.589-2.236 2.826-1.783v0c1.217 0.487 1.522 1.552 0.916 3.195v0c-0.668 1.696-1.611 2.322-2.829 1.876v0c-1.235-0.494-1.539-1.589-0.913-3.288zM104.417 9.024v0c-1.129-0.426-2.162-0.399-3.098 0.08v0c-0.683 0.359-1.161 0.9-1.433 1.622v0c-0.359 0.953-0.193 1.917 0.5 2.893v0c0.06 0.099 0.126 0.19 0.199 0.272v0c-0.801-0.302-1.432-0.145-1.894 0.471v0c-0.096 0.144-0.175 0.298-0.237 0.462v0c-0.24 0.672-0.159 1.268 0.242 1.787v0c-0.578 0.281-0.952 0.65-1.124 1.104v0c-0.259 0.686-0.046 1.352 0.639 1.999v0c0.431 0.419 1.023 0.771 1.776 1.055v0c1.9 0.717 3.334 0.727 4.304 0.032v0c0.317-0.234 0.542-0.527 0.674-0.879v0c0.405-1.074 0.017-1.928-1.165-2.561v0c-0.155-0.086-0.317-0.161-0.487-0.225v0l-3.393-1.374c-0.563-0.254-0.763-0.614-0.601-1.08v0c0.124-0.328 0.408-0.456 0.852-0.385v0c0.09 0.02 0.186 0.049 0.29 0.088v0l1.65 0.643c1.111 0.419 2.142 0.378 3.093-0.122v0c0.677-0.362 1.155-0.913 1.435-1.653v0c0.34-0.939 0.259-1.826-0.244-2.661v0c0.266-0.357 0.572-0.516 0.918-0.476v0c0.053 0.006 0.104 0.018 0.152 0.037v0c0.176 0.066 0.329 0.231 0.458 0.495v0c0.092 0.18 0.192 0.291 0.301 0.332v0c0.345 0.04 0.603-0.091 0.773-0.394v0c0.147-0.388 0.064-0.721-0.247-0.999v0c-0.115-0.099-0.243-0.175-0.382-0.227v0c-0.589-0.222-1.165-0.138-1.729 0.253v0c-0.215 0.148-0.404 0.326-0.566 0.535v0c-0.455-0.504-1.007-0.879-1.656-1.124zM100.172 20.277v0c-1.244-0.469-1.905-1.089-1.981-1.86v0c-0.025-0.21-0.004-0.404 0.062-0.58v0c0.138-0.329 0.417-0.609 0.837-0.839v0c0.231 0.142 0.428 0.245 0.592 0.307v0l2.881 1.128c0.936 0.367 1.399 0.784 1.389 1.253v0c-0.003 0.117-0.032 0.251-0.089 0.403v0c-0.208 0.552-0.872 0.759-1.992 0.621v0c-0.543-0.066-1.11-0.211-1.699-0.433z" fill="#97978d" data-fill-palette-color="accent"></path><path d="M111.71 21.628v0l-1.253-0.71 1.967-3.471c0.601-1.061 1.408-1.73 2.422-2.005v0c0.397-0.096 0.686-0.1 0.868-0.012v0c0.198 0.112 0.292 0.359 0.284 0.742v0c0.01 0.43 0.079 0.716 0.208 0.857v0c0.061 0.064 0.125 0.115 0.193 0.153v0c0.35 0.198 0.669 0.155 0.956-0.129v0c0.061-0.055 0.112-0.119 0.154-0.192v0c0.297-0.525 0.21-0.996-0.262-1.413v0c-0.106-0.09-0.209-0.163-0.311-0.22v0c-0.7-0.396-1.491-0.453-2.375-0.171v0c-0.416 0.129-0.797 0.328-1.142 0.594v0l0.902-1.77-2.531-1.434-0.25 0.44 1.313 0.743-3.118 5.504c-0.304 0.536-0.637 0.769-0.999 0.697v0c-0.207-0.043-0.508-0.176-0.903-0.399v0l-0.25 0.44 4.318 2.446c0.144-0.254 0.136-0.445-0.022-0.572v0c-0.039-0.037-0.095-0.076-0.169-0.118z" fill="#97978d" data-fill-palette-color="accent"></path><path d="M119.46 22.312v0c1.277-1.628 2.505-2.273 3.682-1.934v0c0.299 0.102 0.573 0.252 0.823 0.448v0c1.169 0.917 1.272 2.189 0.309 3.816v0c-0.166 0.274-0.368 0.564-0.609 0.87v0c-1.389 1.771-2.689 2.429-3.899 1.975v0c-0.229-0.097-0.445-0.226-0.649-0.386v0c-1.062-0.833-1.234-1.99-0.517-3.472v0c0.217-0.424 0.503-0.862 0.86-1.317zM124.324 20.463v0c-1.011-0.793-2.125-1.106-3.344-0.94v0c-1.122 0.159-2.059 0.718-2.812 1.677v0c-1.041 1.327-1.339 2.701-0.895 4.121v0c0.276 0.868 0.771 1.582 1.486 2.143v0c1.011 0.793 2.13 1.089 3.358 0.89v0c1.125-0.173 2.072-0.749 2.84-1.73v0c1.041-1.327 1.322-2.694 0.842-4.1v0c-0.284-0.825-0.776-1.512-1.475-2.061z" fill="#97978d" data-fill-palette-color="accent"></path><path d="M130.796 38.731v0l-0.66-0.754 6.038-5.29-2.078-2.371-0.38 0.333 1.083 1.237-3.257 2.854c-0.908 0.795-1.851 1.061-2.831 0.799v0c-0.438-0.116-0.79-0.326-1.055-0.628v0c-0.722-0.825-0.719-1.673 0.009-2.544v0c0.124-0.143 0.267-0.286 0.428-0.427v0l4.201-3.681-2.013-2.298-0.381 0.333 1.02 1.164-3.594 3.149c-1.714 1.519-1.949 2.997-0.706 4.435v0c0.663 0.756 1.513 1.107 2.551 1.051v0c0.392-0.025 0.777-0.103 1.153-0.234v0l-1.447 1.449 1.866 2.13c0.22-0.192 0.275-0.375 0.167-0.548v0c-0.024-0.048-0.062-0.101-0.114-0.159z" fill="#97978d" data-fill-palette-color="accent"></path><path d="M134.343 44.353v0l-0.459-0.781 3.732-2.195c1.097-0.592 2.096-0.665 3-0.217v0c0.377 0.192 0.66 0.451 0.851 0.775v0c0.414 0.705 0.366 1.377-0.147 2.017v0c-0.2 0.261-0.468 0.49-0.803 0.687v0l-3.431 2.017c-0.531 0.312-0.936 0.347-1.214 0.105v0c-0.158-0.14-0.352-0.406-0.582-0.798v0l-0.436 0.256 2.293 3.901c0.252-0.148 0.34-0.317 0.267-0.507v0c-0.018-0.057-0.047-0.119-0.087-0.186v0l-0.508-0.864 4.286-2.52c1.157-0.681 1.75-1.567 1.777-2.66v0c0.001-0.497-0.123-0.958-0.373-1.383v0c-0.503-0.856-1.259-1.36-2.266-1.512v0c-0.39-0.049-0.782-0.044-1.177 0.014v0l1.688-1.083-1.474-2.508-0.437 0.257 0.765 1.3-5.452 3.206c-0.531 0.312-0.936 0.347-1.214 0.105v0c-0.158-0.14-0.352-0.406-0.582-0.798v0l-0.436 0.256 2.239 3.808c0.252-0.148 0.34-0.317 0.266-0.506v0c-0.015-0.051-0.044-0.113-0.086-0.186z" fill="#97978d" data-fill-palette-color="accent"></path><path d="M142.286 57.84l-1.951 0.871 0.975 2.7c0.275-0.099 0.393-0.249 0.355-0.449v0c-0.005-0.053-0.021-0.116-0.048-0.19v0l-0.34-0.943 11.779-4.309-1.157-3.202-0.467 0.168 0.648 1.794-4.612 1.667c0.461-0.863 0.501-1.819 0.122-2.869v0c-0.5-1.385-1.497-2.204-2.989-2.458v0c-0.905-0.156-1.83-0.063-2.775 0.278v0c-1.562 0.564-2.525 1.468-2.89 2.711v0c-0.192 0.69-0.167 1.371 0.075 2.042v0c0.52 1.364 1.612 2.094 3.275 2.189zM142.633 52.417v0c1.775-0.642 3.098-0.578 3.97 0.19v0c0.273 0.239 0.475 0.542 0.607 0.908v0c0.333 0.921 0.079 1.755-0.762 2.5v0c-0.454 0.405-1.037 0.737-1.751 0.995v0c-1.513 0.547-2.745 0.564-3.696 0.053v0c-0.512-0.27-0.861-0.665-1.048-1.184v0c-0.373-1.031 0.013-1.929 1.157-2.694v0c0.423-0.298 0.931-0.554 1.523-0.768z" fill="#97978d" data-fill-palette-color="accent"></path><path d="M10.834 108.695v0c-0.551 0.194-0.838 0.384-0.862 0.571v0c-0.011 0.107 0.012 0.24 0.068 0.399v0l3.736-1.314-0.167-0.477c-2.409 0.091-3.974-0.869-4.695-2.878v0c-0.602-1.714-0.149-3.183 1.359-4.407v0c0.737-0.603 1.678-1.106 2.822-1.508v0c2.466-0.867 4.379-0.776 5.738 0.272v0c0.576 0.465 0.991 1.058 1.245 1.78v0c0.581 1.652 0.223 3.119-1.073 4.4v0c-0.228 0.231-0.47 0.444-0.725 0.636v0l0.168 0.478 3.612-1.343c-0.101-0.288-0.255-0.433-0.462-0.435v0c-0.174 0.013-0.439 0.082-0.794 0.207v0c0.246-0.513 0.326-1.273 0.24-2.282v0c-0.066-0.658-0.21-1.301-0.432-1.931v0c-0.732-2.081-2.063-3.404-3.995-3.97v0c-1.364-0.38-2.76-0.319-4.185 0.183v0c-1.726 0.607-2.986 1.648-3.781 3.124v0c-0.82 1.56-0.909 3.252-0.267 5.076v0c0.485 1.322 1.302 2.461 2.45 3.419z" fill="#97978d" data-fill-palette-color="accent"></path><path d="M14.649 116.75v0l-0.748-1.31 3.617-2.065c1.104-0.63 2.186-0.796 3.246-0.497v0c0.405 0.12 0.664 0.267 0.778 0.441v0c0.119 0.208 0.075 0.484-0.133 0.827v0c-0.229 0.385-0.319 0.679-0.27 0.882v0c0.019 0.086 0.048 0.163 0.087 0.231v0c0.209 0.366 0.518 0.496 0.928 0.389v0c0.089-0.014 0.168-0.04 0.236-0.079v0c0.546-0.312 0.723-0.782 0.528-1.41v0c-0.048-0.137-0.103-0.259-0.164-0.366v0c-0.418-0.732-1.099-1.206-2.044-1.422v0c-0.438-0.101-0.886-0.126-1.342-0.074v0l1.756-1.103-1.505-2.637-0.456 0.261 0.777 1.36-5.73 3.271c-0.558 0.318-0.98 0.35-1.267 0.096v0c-0.165-0.145-0.365-0.423-0.6-0.834v0l-0.456 0.26 2.566 4.496c0.265-0.151 0.36-0.325 0.285-0.521v0c-0.018-0.057-0.047-0.122-0.089-0.196z" fill="#97978d" data-fill-palette-color="accent"></path><path d="M15.572 124.979v0c-0.142-0.177-0.118-0.412 0.072-0.705v0c0.232-0.385 0.344-0.661 0.334-0.828v0c-0.011-0.149-0.069-0.289-0.174-0.421v0c-0.28-0.35-0.594-0.431-0.943-0.244v0c-0.054 0.026-0.098 0.054-0.133 0.082v0c-0.41 0.328-0.517 0.808-0.32 1.439v0c0.088 0.287 0.227 0.549 0.418 0.788v0c0.689 0.861 1.816 1.185 3.381 0.971v0c0.636-0.077 1.343-0.231 2.122-0.463v0l7.911-2.352c0.389-0.137 0.659-0.157 0.81-0.062v0c0.081 0.06 0.162 0.14 0.244 0.242v0c0.174 0.218 0.334 0.293 0.48 0.227v0c0.086-0.027 0.177-0.079 0.273-0.157v0l-1.993-2.493-0.426 0.341 0.955 1.193-6.908 2.097 3.444-6.429 0.875 1.094 0.425-0.34-2.552-3.192-0.425 0.34 0.644 0.806-4.177 8.161c-1.925 0.543-3.219 0.639-3.881 0.288v0c-0.182-0.103-0.334-0.231-0.456-0.383z" fill="#97978d" data-fill-palette-color="accent"></path><path d="M26.128 136.661l-1.094-0.981 2.89-3.224c0.129 1.013 0.548 1.877 1.258 2.591v0c0.923 0.827 2.009 1.17 3.26 1.028v0c1.21-0.135 2.281-0.722 3.212-1.76v0c1.065-1.188 1.547-2.381 1.445-3.579v0c-0.086-0.827-0.458-1.535-1.115-2.124v0c-1.009-0.905-2.122-1.18-3.339-0.824v0c-0.312 0.095-0.611 0.219-0.896 0.373v0l1.44-1.767-2.246-2.013-0.35 0.391 1.173 1.052-7.061 7.875c-0.429 0.478-0.822 0.644-1.178 0.499v0c-0.203-0.095-0.48-0.3-0.833-0.617v0l-0.351 0.392 3.825 3.43c0.204-0.227 0.234-0.422 0.092-0.584v0c-0.026-0.049-0.07-0.102-0.132-0.158zM34.925 128.787v0c0.908 0.814 0.972 1.895 0.191 3.242v0c-0.235 0.408-0.543 0.824-0.924 1.25v0c-1.373 1.531-2.652 2.131-3.837 1.801v0c-0.341-0.096-0.653-0.272-0.938-0.528v0c-0.797-0.715-0.969-1.631-0.515-2.749v0c0.227-0.564 0.602-1.138 1.126-1.722v0c1.213-1.352 2.398-1.975 3.557-1.868v0c0.522 0.05 0.969 0.241 1.34 0.574z" fill="#97978d" data-fill-palette-color="accent"></path><path d="M40.081 132.219l-0.285 0.441 1.233 0.798-3.207 4.96c-0.866 1.518-0.68 2.712 0.558 3.582v0c1.079 0.697 2.181 0.468 3.307-0.689v0c0.007-0.011 0.014-0.022 0.022-0.032v0l-0.416-0.397c-0.925 0.785-1.694 1.037-2.308 0.756v0c-0.618-0.43-0.65-1.092-0.095-1.985v0l3.455-5.344 2.729 1.765 0.286-0.442-2.73-1.764 1.321-2.043-1.553-0.483-1.083 1.675z" fill="#97978d" data-fill-palette-color="accent"></path><path d="M46.605 141.166v0c0.918-1.963 2.015-2.907 3.29-2.833v0c0.329 0.032 0.643 0.118 0.943 0.258v0c1.404 0.657 1.806 1.926 1.206 3.808v0c-0.099 0.319-0.235 0.663-0.408 1.034v0c-0.992 2.121-2.159 3.094-3.502 2.917v0c-0.254-0.04-0.501-0.116-0.742-0.229v0c-1.281-0.599-1.73-1.736-1.348-3.412v0c0.118-0.482 0.305-0.996 0.561-1.543zM51.122 138.144v0c-1.216-0.569-2.425-0.626-3.626-0.17v0c-1.109 0.427-1.933 1.216-2.471 2.368v0c-0.745 1.593-0.722 3.06 0.067 4.403v0c0.486 0.814 1.158 1.422 2.016 1.824v0c1.216 0.569 2.426 0.608 3.629 0.118v0c1.1-0.438 1.926-1.248 2.479-2.429v0c0.745-1.593 0.706-3.05-0.115-4.372v0c-0.485-0.771-1.144-1.351-1.979-1.742z" fill="#97978d" data-fill-palette-color="accent"></path><path d="M61.383 138.713l2.203 0.575c1.205 0.314 1.843 1.057 1.913 2.228v0c0.015 0.379-0.031 0.773-0.137 1.181v0c-0.458 1.758-1.495 2.52-3.11 2.287v0c-0.16-0.028-0.322-0.064-0.485-0.107v0l-1.864-0.486zM54.979 149.473l5.395 1.406c0.077-0.295 0.014-0.492-0.188-0.592v0c-0.066-0.031-0.133-0.055-0.202-0.072v0l-1.497-0.391 1.264-4.849 1.779 0.464c2.216 0.578 3.848 0.333 4.898-0.735v0c0.405-0.397 0.689-0.906 0.851-1.528v0c0.35-1.343 0.015-2.436-1.006-3.278v0c-0.551-0.459-1.256-0.8-2.116-1.025v0l-6.008-1.565-0.137 0.527 1.619 0.422-2.895 11.111-1.62-0.422z" fill="#97978d" data-fill-palette-color="accent"></path><path d="M72.566 152.436v0l-1.122-0.12 1.39-13.023-3.125-0.334-0.056 0.523 1.568 0.167-1.202 11.253c-0.068 0.639-0.289 1-0.664 1.084v0c-0.22 0.048-0.566 0.047-1.037-0.003v0l-0.055 0.522 4.77 0.51c0.032-0.303-0.053-0.482-0.256-0.537v0c-0.057-0.019-0.127-0.033-0.211-0.042z" fill="#97978d" data-fill-palette-color="accent"></path><path d="M83.767 153.059v0c1.076-0.034 1.649-0.704 1.719-2.011v0c0.01-0.085 0.014-0.159 0.012-0.225v0l-0.546-0.012c-0.065 1.028-0.321 1.555-0.767 1.582v0c-0.364-0.021-0.564-0.378-0.599-1.071v0l-0.14-4.425c-0.063-1.997-1.095-3.019-3.095-3.067v0c-0.123 0.004-0.25 0.008-0.379 0.012v0c-1.563 0.049-2.598 0.446-3.107 1.189v0c-0.155 0.245-0.228 0.484-0.221 0.718v0c0.014 0.434 0.223 0.681 0.627 0.739v0c0.072 0.011 0.143 0.015 0.214 0.013v0c0.318-0.01 0.548-0.219 0.691-0.626v0c0.178-0.525 0.301-0.837 0.37-0.936v0c0.255-0.359 0.661-0.547 1.218-0.564v0c1.312 0.043 2.013 0.741 2.101 2.095v0l0.042 1.313c-3.281 0.104-5.139 0.85-5.576 2.24v0c-0.076 0.262-0.109 0.549-0.099 0.86v0c0.034 1.063 0.527 1.775 1.479 2.134v0c0.381 0.144 0.779 0.209 1.194 0.195v0c1.024-0.032 1.872-0.41 2.544-1.131v0c0.244-0.274 0.424-0.559 0.537-0.855v0c0.208 1.233 0.801 1.844 1.781 1.833zM79.578 152.344v0c-0.856 0.027-1.394-0.381-1.616-1.224v0c-0.045-0.193-0.071-0.41-0.079-0.65v0c-0.029-0.934 0.487-1.544 1.549-1.83v0c0.573-0.141 1.404-0.236 2.493-0.284v0l0.053 1.673c-0.183 0.973-0.674 1.667-1.473 2.081v0c-0.313 0.146-0.622 0.224-0.927 0.234z" fill="#97978d" data-fill-palette-color="accent"></path><path d="M90.537 155.304v0c-0.222 0.045-0.421-0.083-0.595-0.385v0c-0.237-0.382-0.432-0.607-0.585-0.676v0c-0.138-0.058-0.289-0.07-0.454-0.036v0c-0.439 0.089-0.654 0.332-0.646 0.728v0c-0.001 0.06 0.003 0.112 0.012 0.156v0c0.105 0.515 0.483 0.828 1.135 0.94v0c0.295 0.052 0.592 0.048 0.891-0.013v0c1.081-0.22 1.883-1.076 2.406-2.566v0c0.222-0.601 0.407-1.301 0.555-2.099v0l1.513-8.115c0.056-0.409 0.16-0.658 0.313-0.749v0c0.09-0.045 0.199-0.08 0.326-0.106v0c0.273-0.056 0.413-0.164 0.421-0.325v0c0.015-0.089 0.01-0.194-0.015-0.314v0l-3.127 0.638 0.109 0.534 1.497-0.306-1.282 7.104-4.153-5.995 1.373-0.28-0.109-0.534-4.004 0.817 0.109 0.534 1.01-0.206 5.361 7.437c-0.394 1.961-0.899 3.156-1.513 3.586v0c-0.175 0.115-0.358 0.192-0.548 0.231z" fill="#97978d" data-fill-palette-color="accent"></path><path d="M100.174 143.476v0c-0.62-1.735-0.291-2.848 0.987-3.339v0c1.291-0.455 2.266 0.172 2.924 1.878v0c0.635 1.792 0.319 2.931-0.946 3.418v0c-1.304 0.459-2.292-0.193-2.965-1.957zM101.004 139.634v0c-1.179 0.44-1.973 1.17-2.382 2.188v0c-0.287 0.751-0.289 1.507-0.005 2.266v0c0.37 0.991 1.161 1.634 2.372 1.93v0c0.116 0.033 0.229 0.057 0.338 0.071v0c-0.839 0.313-1.226 0.87-1.163 1.67v0c0.021 0.186 0.063 0.364 0.127 0.534v0c0.277 0.686 0.752 1.097 1.426 1.233v0c-0.261 0.617-0.303 1.162-0.126 1.637v0c0.268 0.717 0.893 1.093 1.875 1.128v0c0.623 0.037 1.33-0.092 2.12-0.387v0c1.987-0.742 3.119-1.715 3.397-2.92v0c0.09-0.408 0.067-0.794-0.069-1.158v0c-0.422-1.13-1.312-1.539-2.67-1.226v0c-0.179 0.039-0.363 0.094-0.552 0.164v0l-3.591 1.258c-0.624 0.184-1.032 0.036-1.226-0.445v0c-0.127-0.34 0.008-0.637 0.405-0.889v0c0.087-0.046 0.185-0.09 0.294-0.131v0l1.73-0.625c1.167-0.436 1.95-1.175 2.35-2.218v0c0.287-0.751 0.287-1.513-0.001-2.284v0c-0.378-0.974-1.05-1.616-2.018-1.927v0c-0.041-0.462 0.088-0.794 0.387-0.996v0c0.05-0.033 0.1-0.058 0.148-0.076v0c0.188-0.07 0.422-0.047 0.701 0.071v0c0.196 0.079 0.351 0.097 0.467 0.054v0c0.299-0.202 0.412-0.483 0.34-0.844v0c-0.152-0.407-0.447-0.612-0.885-0.615v0c-0.164 0.006-0.316 0.035-0.455 0.087v0c-0.62 0.231-1.016 0.691-1.189 1.379v0c-0.066 0.267-0.093 0.54-0.078 0.819v0c-0.703-0.084-1.392 0-2.067 0.252zM105.396 151.393v0c-1.301 0.486-2.248 0.452-2.843-0.101v0c-0.159-0.148-0.273-0.314-0.341-0.496v0c-0.119-0.357-0.093-0.768 0.079-1.235v0c0.279-0.049 0.504-0.105 0.675-0.168v0l3.043-1.085c0.983-0.353 1.634-0.344 1.953 0.029v0c0.075 0.09 0.142 0.214 0.201 0.371v0c0.216 0.577-0.163 1.196-1.134 1.858v0c-0.475 0.323-1.019 0.599-1.633 0.828z" fill="#97978d" data-fill-palette-color="accent"></path><path d="M115.288 142.326v0l-1.316 0.738-2.037-3.633c-0.622-1.109-0.78-2.192-0.473-3.249v0c0.123-0.404 0.272-0.662 0.447-0.775v0c0.209-0.117 0.485-0.071 0.825 0.139v0c0.383 0.232 0.676 0.324 0.88 0.276v0c0.086-0.019 0.163-0.047 0.232-0.085v0c0.368-0.206 0.5-0.515 0.396-0.925v0c-0.013-0.089-0.038-0.168-0.077-0.236v0c-0.308-0.549-0.777-0.728-1.407-0.538v0c-0.137 0.047-0.26 0.101-0.367 0.161v0c-0.736 0.413-1.214 1.09-1.436 2.033v0c-0.104 0.438-0.132 0.885-0.085 1.342v0l-1.09-1.765-2.648 1.485 0.257 0.458 1.367-0.766 3.227 5.754c0.314 0.56 0.343 0.983 0.087 1.268v0c-0.146 0.164-0.426 0.362-0.839 0.593v0l0.257 0.458 4.515-2.532c-0.149-0.266-0.322-0.362-0.519-0.289v0c-0.057 0.017-0.123 0.046-0.196 0.088z" fill="#97978d" data-fill-palette-color="accent"></path><path d="M119.072 135.073v0c-1.328-1.712-1.669-3.119-1.021-4.221v0c0.178-0.278 0.398-0.518 0.66-0.721v0c1.225-0.95 2.538-0.729 3.939 0.663v0c0.239 0.234 0.483 0.512 0.734 0.835v0c1.436 1.85 1.769 3.332 0.999 4.446v0c-0.151 0.207-0.332 0.393-0.542 0.556v0c-1.117 0.867-2.334 0.748-3.651-0.356v0c-0.375-0.325-0.748-0.725-1.118-1.202zM118.443 129.674v0c-1.061 0.823-1.663 1.873-1.805 3.15v0c-0.126 1.182 0.201 2.275 0.98 3.279v0c1.078 1.389 2.394 2.038 3.95 1.948v0c0.946-0.061 1.794-0.382 2.542-0.963v0c1.061-0.823 1.648-1.882 1.76-3.176v0c0.112-1.179-0.232-2.283-1.032-3.313v0c-1.078-1.389-2.392-2.019-3.943-1.892v0c-0.907 0.08-1.724 0.402-2.452 0.967z" fill="#97978d" data-fill-palette-color="accent"></path><path d="M136.496 123.588v0l-0.696 0.787-6.275-5.551-2.18 2.463 0.394 0.348 1.141-1.29 3.389 2.999c0.943 0.834 1.34 1.775 1.193 2.822v0c-0.059 0.468-0.228 0.86-0.507 1.175v0c-0.757 0.855-1.635 0.962-2.635 0.32v0c-0.167-0.105-0.336-0.232-0.506-0.383v0l-4.358-3.855-2.108 2.383 0.393 0.348 1.071-1.21 3.731 3.301c1.797 1.572 3.36 1.621 4.69 0.148v0c0.692-0.782 0.941-1.71 0.746-2.783v0c-0.07-0.4-0.204-0.787-0.401-1.161v0l1.7 1.309 1.96-2.215c-0.228-0.202-0.423-0.236-0.586-0.102v0c-0.048 0.035-0.101 0.084-0.156 0.147z" fill="#97978d" data-fill-palette-color="accent"></path><path d="M140.784 116.969v0l-0.482 0.811-3.89-2.31c-1.096-0.696-1.666-1.571-1.713-2.624v0c-0.009-0.443 0.086-0.831 0.286-1.166v0c0.437-0.736 1.077-1.032 1.918-0.887v0c0.336 0.056 0.68 0.189 1.031 0.398v0l3.564 2.117c0.552 0.328 0.788 0.68 0.709 1.055v0c-0.045 0.215-0.188 0.526-0.429 0.933v0l0.451 0.268 2.406-4.049c-0.262-0.156-0.46-0.153-0.595 0.009v0c-0.038 0.038-0.078 0.093-0.121 0.166v0l-0.536 0.904-4.468-2.654c-1.199-0.712-2.305-0.807-3.317-0.284v0c-0.457 0.249-0.817 0.594-1.078 1.034v0c-0.53 0.892-0.612 1.836-0.245 2.832v0c0.15 0.383 0.354 0.738 0.612 1.065v0l-1.843-0.993-1.55 2.61 0.451 0.269 0.8-1.347 5.673 3.369c0.552 0.328 0.788 0.68 0.709 1.055v0c-0.045 0.215-0.188 0.526-0.43 0.933v0l0.452 0.268 2.35-3.957c-0.262-0.156-0.46-0.153-0.594 0.009v0c-0.038 0.038-0.078 0.093-0.121 0.166z" fill="#97978d" data-fill-palette-color="accent"></path><path d="M146.335 100.945l2.144 0.597 1.029-2.815c-0.286-0.105-0.482-0.062-0.586 0.128v0c-0.03 0.044-0.059 0.106-0.088 0.186v0l-0.361 0.987-12.314-4.461-1.223 3.344 0.493 0.181 0.682-1.865 4.798 1.755c-0.941 0.381-1.61 1.117-2.009 2.208v0c-0.528 1.444-0.284 2.77 0.732 3.976v0c0.623 0.732 1.429 1.279 2.415 1.64v0c1.627 0.595 3.002 0.517 4.126-0.232v0c0.62-0.43 1.057-0.992 1.31-1.687v0c0.493-1.443 0.11-2.757-1.148-3.942zM142.421 105.047v0c-1.852-0.677-2.87-1.616-3.053-2.816v0c-0.055-0.379-0.013-0.758 0.125-1.135v0c0.35-0.957 1.111-1.452 2.284-1.486v0c0.631-0.025 1.321 0.1 2.07 0.374v0c1.578 0.577 2.576 1.391 2.993 2.441v0c0.224 0.558 0.238 1.106 0.042 1.642v0c-0.392 1.072-1.303 1.533-2.733 1.383v0c-0.536-0.044-1.112-0.179-1.728-0.403z" fill="#97978d" data-fill-palette-color="accent"></path><path d="M3.011 78.573c0-2.753 2.232-4.985 4.985-4.985 2.753 0 4.985 2.232 4.985 4.985 0 2.753-2.232 4.985-4.985 4.984-2.753 0-4.985-2.232-4.985-4.984z" fill="#97978d" data-fill-palette-color="accent"></path><path d="M142.727 78.573c0-2.753 2.232-4.985 4.984-4.985 2.753 0 4.985 2.232 4.985 4.985 0 2.753-2.232 4.985-4.985 4.984-2.753 0-4.985-2.232-4.984-4.984z" fill="#97978d" data-fill-palette-color="accent"></path></g><g id="text-1"></g></svg></g></svg></g></svg></g><defs></defs></svg><rect width="395.52" height="106.97211193755247" fill="none" stroke="none" visibility="hidden"></rect></g></svg></g></svg>